<svg version="1.1" id="Layer_1" xmlns="http://www.w3.org/2000/svg" xmlns:xlink="http://www.w3.org/1999/xlink" x="0px" y="0px"
	 width="100%" viewBox="0 0 3840 2160" enable-background="new 0 0 3840 2160" xml:space="preserve">
<path fill="#FEC504" opacity="1.000000" stroke="none" 
	d="
M1374.685547,1965.303223 
	C1333.939453,1939.806274 1295.105591,1912.851196 1259.329590,1881.792114 
	C1235.222778,1860.863525 1210.965698,1839.972778 1188.369507,1817.465088 
	C1118.596558,1747.965576 1059.991455,1669.871582 1012.606628,1583.489746 
	C965.089233,1496.866333 930.436340,1405.310547 908.854553,1308.894287 
	C899.993530,1269.308228 893.233948,1229.325317 889.713806,1188.870361 
	C888.101990,1170.346558 886.427490,1151.797485 885.807983,1133.225586 
	C884.842712,1104.290527 883.595337,1075.287354 884.575623,1046.384399 
	C885.880676,1007.904602 889.362976,969.530945 895.149414,931.378540 
	C900.489319,896.170471 907.125183,861.244080 915.966553,826.774719 
	C949.353088,696.612000 1005.271301,577.017700 1084.729004,468.536865 
	C1112.697510,430.352356 1143.267822,394.418335 1176.086304,360.269531 
	C1230.555664,303.592255 1290.789917,253.990067 1356.573242,211.134232 
	C1427.751831,164.763321 1503.610352,127.869148 1583.930542,100.085960 
	C1640.028809,80.681274 1697.366211,66.176201 1755.882690,56.594551 
	C1788.647583,51.229542 1821.658813,47.613682 1854.871338,45.454334 
	C1897.159790,42.704899 1939.429932,43.164322 1981.668091,44.590355 
	C2005.829346,45.406082 2029.900879,49.052647 2053.997559,51.569561 
	C2097.745850,56.139080 2140.709473,65.041687 2183.232666,75.988495 
	C2251.115234,93.463531 2316.521484,117.695694 2379.567383,148.444489 
	C2452.346924,183.940704 2520.104492,227.221939 2582.576172,278.647339 
	C2603.362061,295.758057 2623.175049,314.093689 2642.895020,332.447205 
	C2682.953613,369.729614 2718.718018,410.919952 2751.825928,454.430695 
	C2787.194092,500.911255 2818.303223,550.107300 2845.224609,601.946533 
	C2871.050781,651.676880 2893.036621,703.030457 2910.504639,756.294556 
	C2928.364746,810.755371 2942.045410,866.200806 2950.509033,922.937866 
	C2955.020752,953.183716 2958.358398,983.496887 2960.522461,1014.015076 
	C2963.520264,1056.294678 2963.650879,1098.635620 2961.350830,1140.801147 
	C2956.552002,1228.779785 2940.687988,1314.918457 2913.662109,1398.938110 
	C2895.368164,1455.811401 2872.607910,1510.799316 2844.849121,1563.646606 
	C2807.549316,1634.657349 2762.776367,1700.648438 2710.209229,1761.327148 
	C2684.231689,1791.313232 2656.880615,1819.973267 2627.664062,1846.763672 
	C2566.071777,1903.241455 2498.866699,1951.998535 2425.642334,1992.442261 
	C2370.111816,2023.113403 2312.332275,2048.611328 2252.202637,2068.692383 
	C2195.626953,2087.586182 2137.832031,2101.619873 2078.767578,2110.248779 
	C2043.573975,2115.390137 2008.295776,2119.659424 1972.682617,2120.316406 
	C1943.398926,2120.856689 1914.056763,2122.609619 1884.838623,2121.418213 
	C1824.358154,2118.952148 1764.397339,2111.656006 1705.119751,2098.772461 
	C1647.085571,2086.158691 1590.525391,2068.983887 1535.451050,2046.868164 
	C1479.708252,2024.483887 1426.326294,1997.401489 1374.685547,1965.303223 
M1027.570923,672.531372 
	C973.286682,790.162231 944.100769,913.900574 938.452087,1043.154297 
	C936.048950,1098.145020 938.550171,1153.028320 945.572144,1207.716431 
	C954.770996,1279.357910 971.229187,1349.193237 995.879517,1417.074097 
	C1056.273315,1583.383545 1154.332275,1723.584106 1289.404663,1837.633911 
	C1396.301514,1927.893555 1517.357788,1992.119385 1651.866699,2030.859863 
	C1723.865234,2051.596680 1797.333984,2064.173096 1872.110107,2067.325684 
	C1911.323364,2068.979004 1950.764404,2068.060059 1989.978882,2065.975098 
	C2022.494141,2064.246338 2055.042725,2060.432373 2087.199707,2055.217773 
	C2165.110107,2042.583496 2240.361328,2020.350586 2312.871094,1988.990234 
	C2459.988281,1925.362305 2584.503906,1831.597656 2686.272949,1707.894043 
	C2770.092041,1606.009155 2830.807861,1491.653076 2868.719727,1365.197144 
	C2893.542969,1282.399292 2906.743896,1197.745117 2909.538086,1111.468384 
	C2911.157715,1061.452759 2908.438965,1011.589478 2902.384277,961.875793 
	C2895.399658,904.527039 2883.665039,848.215820 2866.492676,793.087097 
	C2808.129395,605.720947 2703.666016,448.832855 2552.707520,323.588593 
	C2395.590576,193.235077 2214.561523,119.504623 2011.402588,100.500214 
	C1971.625000,96.779243 1931.675049,95.533279 1891.602783,97.293869 
	C1845.601440,99.314941 1799.961060,103.708595 1754.594482,111.533897 
	C1669.401978,126.228783 1587.627808,151.859299 1509.360352,188.427643 
	C1382.276001,247.804474 1272.563477,330.394409 1180.351929,436.168823 
	C1118.400391,507.232544 1067.688477,585.563416 1027.570923,672.531372 
z"/>
<path fill="#A12030" opacity="1.000000" stroke="none" 
	d="
M1027.862061,671.835938 
	C1067.688477,585.563416 1118.400391,507.232544 1180.351929,436.168823 
	C1272.563477,330.394409 1382.276001,247.804474 1509.360352,188.427643 
	C1587.627808,151.859299 1669.401978,126.228783 1754.594482,111.533897 
	C1799.961060,103.708595 1845.601440,99.314941 1891.602783,97.293869 
	C1931.675049,95.533279 1971.625000,96.779243 2011.402588,100.500214 
	C2214.561523,119.504623 2395.590576,193.235077 2552.707520,323.588593 
	C2703.666016,448.832855 2808.129395,605.720947 2866.492676,793.087097 
	C2883.665039,848.215820 2895.399658,904.527039 2902.384277,961.875793 
	C2908.438965,1011.589478 2911.157715,1061.452759 2909.538086,1111.468384 
	C2906.743896,1197.745117 2893.542969,1282.399292 2868.719727,1365.197144 
	C2830.807861,1491.653076 2770.092041,1606.009155 2686.272949,1707.894043 
	C2584.503906,1831.597656 2459.988281,1925.362305 2312.871094,1988.990234 
	C2240.361328,2020.350586 2165.110107,2042.583496 2087.199707,2055.217773 
	C2055.042725,2060.432373 2022.494141,2064.246338 1989.978882,2065.975098 
	C1950.764404,2068.060059 1911.323364,2068.979004 1872.110107,2067.325684 
	C1797.333984,2064.173096 1723.865234,2051.596680 1651.866699,2030.859863 
	C1517.357788,1992.119385 1396.301514,1927.893555 1289.404663,1837.633911 
	C1154.332275,1723.584106 1056.273315,1583.383545 995.879517,1417.074097 
	C971.229187,1349.193237 954.770996,1279.357910 945.572144,1207.716431 
	C938.550171,1153.028320 936.048950,1098.145020 938.452087,1043.154297 
	C944.100769,913.900574 973.286682,790.162231 1027.862061,671.835938 
M2187.184570,185.802902 
	C2117.364258,164.745331 2045.929443,152.155914 1973.205322,148.691223 
	C1934.350220,146.840103 1895.274536,148.551559 1856.335938,149.813507 
	C1815.336182,151.142273 1774.895020,157.677658 1734.690430,165.687332 
	C1618.622681,188.810684 1511.073486,232.922531 1411.719971,297.026947 
	C1336.188599,345.760925 1269.079468,404.253540 1210.316895,472.329712 
	C1163.294312,526.805115 1122.940918,585.811707 1089.449951,649.483398 
	C1050.615967,723.313232 1022.335022,801.022766 1004.186096,882.453369 
	C991.253784,940.477905 984.413574,999.269287 982.411499,1058.591553 
	C980.983459,1100.904541 983.152710,1143.134521 987.580139,1185.281494 
	C992.005005,1227.405029 999.122742,1269.017578 1009.241089,1310.109863 
	C1027.565674,1384.529297 1054.514038,1455.689697 1090.451538,1523.425659 
	C1136.413940,1610.056641 1194.310303,1687.700439 1264.455444,1756.309570 
	C1311.580322,1802.402222 1362.920898,1843.022339 1418.461182,1878.457886 
	C1480.848755,1918.262207 1547.164185,1949.864380 1617.095825,1973.901733 
	C1703.664795,2003.657837 1792.871460,2019.660889 1884.215454,2023.555542 
	C1933.875122,2025.672852 1983.488281,2023.450562 2032.837402,2017.502075 
	C2076.826416,2012.199951 2120.272461,2003.868896 2163.117432,1992.352173 
	C2313.450195,1951.942749 2445.522461,1878.479614 2559.685303,1772.913330 
	C2612.234619,1724.321289 2658.412109,1670.106567 2698.516602,1610.732178 
	C2753.991211,1528.602295 2795.532471,1440.007202 2822.804688,1344.731689 
	C2838.416260,1290.192139 2849.738525,1234.790039 2854.206543,1178.188721 
	C2856.694092,1146.675537 2859.088623,1115.052124 2859.111572,1083.476685 
	C2859.133301,1053.235840 2856.378662,1022.968140 2854.216797,992.757141 
	C2851.574951,955.836792 2845.168945,919.416199 2837.151367,883.340759 
	C2816.259521,789.336548 2782.028076,700.446167 2733.784668,617.013306 
	C2663.787109,495.958130 2571.511719,395.345825 2456.852539,315.327667 
	C2374.467285,257.832550 2284.982910,214.973526 2187.184570,185.802902 
z"/>
<path fill="#011F3E" opacity="1.000000" stroke="none" 
	d="
M2187.971191,185.978531 
	C2284.982910,214.973526 2374.467285,257.832550 2456.852539,315.327667 
	C2571.511719,395.345825 2663.787109,495.958130 2733.784668,617.013306 
	C2782.028076,700.446167 2816.259521,789.336548 2837.151367,883.340759 
	C2845.168945,919.416199 2851.574951,955.836792 2854.216797,992.757141 
	C2856.378662,1022.968140 2859.133301,1053.235840 2859.111572,1083.476685 
	C2859.088623,1115.052124 2856.694092,1146.675537 2854.206543,1178.188721 
	C2849.738525,1234.790039 2838.416260,1290.192139 2822.804688,1344.731689 
	C2795.532471,1440.007202 2753.991211,1528.602295 2698.516602,1610.732178 
	C2658.412109,1670.106567 2612.234619,1724.321289 2559.685303,1772.913330 
	C2445.522461,1878.479614 2313.450195,1951.942749 2163.117432,1992.352173 
	C2120.272461,2003.868896 2076.826416,2012.199951 2032.837402,2017.502075 
	C1983.488281,2023.450562 1933.875122,2025.672852 1884.215454,2023.555542 
	C1792.871460,2019.660889 1703.664795,2003.657837 1617.095825,1973.901733 
	C1547.164185,1949.864380 1480.848755,1918.262207 1418.461182,1878.457886 
	C1362.920898,1843.022339 1311.580322,1802.402222 1264.455444,1756.309570 
	C1194.310303,1687.700439 1136.413940,1610.056641 1090.451538,1523.425659 
	C1054.514038,1455.689697 1027.565674,1384.529297 1009.241089,1310.109863 
	C999.122742,1269.017578 992.005005,1227.405029 987.580139,1185.281494 
	C983.152710,1143.134521 980.983459,1100.904541 982.411499,1058.591553 
	C984.413574,999.269287 991.253784,940.477905 1004.186096,882.453369 
	C1022.335022,801.022766 1050.615967,723.313232 1089.449951,649.483398 
	C1122.940918,585.811707 1163.294312,526.805115 1210.316895,472.329712 
	C1269.079468,404.253540 1336.188599,345.760925 1411.719971,297.026947 
	C1511.073486,232.922531 1618.622681,188.810684 1734.690430,165.687332 
	C1774.895020,157.677658 1815.336182,151.142273 1856.335938,149.813507 
	C1895.274536,148.551559 1934.350220,146.840103 1973.205322,148.691223 
	C2045.929443,152.155914 2117.364258,164.745331 2187.971191,185.978531 
M1032.210205,953.937927 
	C1032.210205,953.937927 1031.916016,953.644409 1031.916016,953.644409 
	C1031.916016,953.644409 1032.480957,953.706177 1032.127197,954.996216 
	C1032.789062,955.290405 1033.451050,955.584534 1033.268921,957.183289 
	C1049.473633,983.013489 1065.678467,1008.843689 1082.127319,1035.062866 
	C1068.145508,1043.657593 1054.708008,1051.917725 1041.270630,1060.177856 
	C1041.434204,1060.698975 1041.597656,1061.219971 1041.761230,1061.741089 
	C1058.361084,1062.973389 1074.960938,1064.205688 1091.729004,1065.450562 
	C1093.250244,1081.341187 1094.654053,1096.004395 1096.057861,1110.667603 
	C1096.613403,1110.798950 1097.168945,1110.930420 1097.724609,1111.061890 
	C1105.559937,1097.768188 1113.395264,1084.474487 1121.542358,1070.651733 
	C1146.195435,1079.786865 1170.118530,1088.651489 1194.821411,1098.220581 
	C1196.160156,1098.540405 1197.499023,1098.860229 1198.837891,1099.180054 
	C1199.030884,1098.716187 1199.223877,1098.252319 1199.416870,1097.788330 
	C1197.683105,1096.438477 1195.949463,1095.088623 1193.412842,1092.687744 
	C1175.685059,1076.171387 1157.957397,1059.655029 1139.871582,1042.805054 
	C1146.209595,1031.796997 1152.415649,1021.231140 1158.371582,1010.526001 
	C1159.884033,1007.807556 1160.601440,1004.646729 1162.106567,1001.888733 
	C1162.106567,1001.888733 1162.466919,1001.454773 1162.466919,1001.454773 
	C1162.466919,1001.454773 1161.834961,1001.884583 1160.360352,1001.943665 
	C1145.973267,1008.592834 1131.586060,1015.242065 1117.180176,1021.899963 
	C1091.784424,1001.436340 1066.966797,981.404053 1042.089722,961.445801 
	C1039.562622,959.418274 1036.677612,957.836609 1033.838501,954.988403 
	C1033.314453,954.512085 1032.790405,954.035767 1032.210205,953.937927 
M2805.839355,961.961914 
	C2805.839355,961.961914 2805.850830,961.807495 2807.117920,961.600281 
	C2808.107910,959.757874 2809.097900,957.915466 2810.802490,955.682556 
	C2810.719971,955.271484 2810.637451,954.860413 2810.554688,954.449524 
	C2810.103271,954.717224 2809.651855,954.984863 2807.994141,955.518738 
	C2806.525879,956.891296 2805.057617,958.263855 2802.394043,960.246094 
	C2776.439453,981.015198 2750.484619,1001.784363 2724.490234,1022.585266 
	C2709.175293,1015.543030 2694.499512,1008.794739 2679.823730,1002.046448 
	C2679.477783,1002.448792 2679.131592,1002.851196 2678.785645,1003.253601 
	C2686.404785,1016.575256 2694.023926,1029.896851 2701.806152,1043.503540 
	C2681.972168,1062.111694 2662.696289,1080.196411 2643.420166,1098.281128 
	C2643.723389,1098.721558 2644.026855,1099.161987 2644.330078,1099.602539 
	C2669.463867,1090.259521 2694.597656,1080.916382 2720.335938,1071.348633 
	C2728.578369,1085.166138 2736.551758,1098.532593 2744.525146,1111.899170 
	C2745.003662,1111.655396 2745.482422,1111.411621 2745.960938,1111.167847 
	C2747.301514,1096.343750 2748.641846,1081.519653 2750.035156,1066.112427 
	C2767.194092,1064.930786 2783.632324,1063.798706 2800.070312,1062.666748 
	C2800.202637,1062.072754 2800.334717,1061.478638 2800.467041,1060.884644 
	C2787.030518,1052.595215 2773.593994,1044.305664 2759.788818,1035.788696 
	C2761.962646,1032.233276 2763.623047,1029.415649 2765.380859,1026.659912 
	C2776.659424,1008.976624 2788.009033,991.338318 2799.204590,973.602783 
	C2801.112061,970.581360 2802.390137,967.162476 2804.536377,963.218994 
	C2804.947266,962.769531 2805.348145,962.311096 2805.839355,961.961914 
M1221.741821,1543.444824 
	C1222.077759,1543.869995 1222.413574,1544.295044 1222.292847,1545.997314 
	C1211.657349,1560.421387 1201.021729,1574.845459 1190.156616,1589.580933 
	C1196.851685,1599.448853 1203.329590,1608.996704 1210.218384,1619.150024 
	C1252.517700,1590.700073 1294.086060,1562.741699 1336.239990,1534.389282 
	C1329.136719,1523.861816 1322.523804,1514.061157 1315.883789,1504.220215 
	C1299.315063,1514.407837 1284.724609,1525.676147 1268.866089,1534.889526 
	C1268.218994,1534.270142 1267.572021,1533.650879 1266.924927,1533.031494 
	C1278.039917,1515.626831 1289.154907,1498.222168 1300.223511,1480.890015 
	C1292.651978,1469.878052 1285.581421,1459.594482 1278.298950,1449.002686 
	C1271.530640,1453.466309 1265.759521,1457.272461 1259.807983,1461.197510 
	C1260.890259,1464.003540 1261.794067,1466.346924 1262.814697,1468.993164 
	C1227.503296,1492.791992 1192.524292,1516.366943 1156.968140,1540.330688 
	C1164.069702,1550.798584 1170.669189,1560.526489 1177.354858,1570.381348 
	C1192.447998,1560.562988 1206.628174,1551.338501 1221.741821,1543.444824 
M2279.224609,513.753052 
	C2228.787109,482.587585 2175.259277,458.302460 2118.489258,441.105164 
	C2059.821777,423.333069 1999.848633,413.606781 1938.616699,412.247864 
	C1917.005127,411.768219 1895.282349,412.316498 1873.734497,413.992706 
	C1848.552979,415.951660 1823.280518,418.391357 1798.445923,422.844360 
	C1727.447754,435.574738 1660.092773,459.133850 1596.579346,493.569611 
	C1510.646606,540.160583 1437.900757,602.200012 1378.460449,679.709534 
	C1325.340576,748.977295 1287.016968,825.770203 1263.343262,909.825195 
	C1248.562500,962.305176 1240.382080,1015.868469 1238.429199,1070.290894 
	C1236.777222,1116.326294 1240.126221,1162.088989 1247.698242,1207.596191 
	C1258.886841,1274.837646 1279.771851,1338.900879 1310.387329,1399.674683 
	C1347.626831,1473.597778 1396.617920,1538.797729 1457.553345,1595.022949 
	C1503.655029,1637.561157 1554.464111,1673.264404 1610.241699,1701.837280 
	C1695.630127,1745.578735 1786.449219,1769.880981 1882.105347,1775.446655 
	C1927.728760,1778.101196 1973.373291,1776.317627 2018.661987,1769.537720 
	C2074.552734,1761.170776 2128.733643,1746.546875 2180.999756,1724.831909 
	C2256.258789,1693.563843 2323.931152,1650.460449 2383.646240,1595.067993 
	C2449.909912,1533.600952 2502.195557,1461.880859 2540.176758,1379.754517 
	C2575.817871,1302.688110 2596.402588,1221.717163 2601.284180,1137.106934 
	C2603.158936,1104.613037 2601.615723,1071.828491 2600.051025,1039.252197 
	C2597.870361,993.854919 2588.869873,949.486023 2576.300537,905.844910 
	C2545.173584,797.769470 2490.367432,703.309631 2412.864258,621.942749 
	C2373.347900,580.456421 2328.946777,544.951416 2279.224609,513.753052 
M1725.201416,233.180908 
	C1723.089966,230.857529 1722.222290,226.716812 1717.858643,227.560776 
	C1706.242188,229.807434 1694.655029,232.204941 1682.714844,234.611267 
	C1684.308716,242.598053 1685.662354,249.381210 1687.046387,256.316498 
	C1690.089355,256.521698 1692.609619,256.691650 1695.279297,256.871674 
	C1703.891846,298.543457 1712.421875,339.815155 1721.083862,381.726471 
	C1733.420532,379.181091 1744.920044,376.808380 1756.968872,374.322388 
	C1753.146484,355.431030 1749.588989,337.848663 1746.031494,320.266327 
	C1746.909790,319.917694 1747.788208,319.569031 1748.666504,319.220398 
	C1758.870361,336.073303 1769.074097,352.926208 1779.339722,369.881256 
	C1791.293457,367.270996 1802.529785,364.817352 1814.430786,362.218567 
	C1804.076538,312.221985 1793.927002,263.213959 1783.663452,213.655228 
	C1771.271851,216.256729 1759.982544,218.626801 1747.970581,221.148590 
	C1751.694580,239.765182 1755.294067,257.759674 1758.963745,276.104614 
	C1756.935913,275.920837 1755.972656,276.107025 1755.730591,275.772125 
	C1745.798950,262.026093 1735.932129,248.233276 1725.201416,233.180908 
M1225.890747,645.027222 
	C1250.512085,662.463440 1275.133301,679.899597 1300.411377,697.800903 
	C1312.025757,681.026245 1323.380005,665.437622 1333.818726,649.258423 
	C1340.499634,638.903625 1344.802979,627.341003 1345.675537,614.437561 
	C1309.261841,589.123535 1272.974365,563.897217 1237.671265,539.355225 
	C1209.741455,556.729553 1194.733398,584.062683 1176.303711,609.818604 
	C1192.807495,621.525879 1208.769531,632.848938 1225.890747,645.027222 
M1428.625122,1737.699097 
	C1444.844116,1716.773682 1461.063232,1695.848267 1477.649780,1674.448730 
	C1465.589111,1664.996094 1454.449829,1656.265503 1442.901489,1647.214355 
	C1437.874634,1653.673340 1433.452271,1659.355713 1429.107178,1664.938599 
	C1431.133789,1667.564087 1432.651611,1669.530518 1434.215820,1671.557007 
	C1409.594604,1703.263184 1385.348633,1734.485962 1360.879395,1765.996216 
	C1377.125244,1797.125366 1401.814209,1815.771240 1435.238770,1824.102661 
	C1464.681396,1786.040283 1493.731689,1748.485229 1523.274902,1710.292847 
	C1513.465820,1702.785034 1504.318604,1695.783936 1494.661133,1688.392212 
	C1492.233765,1691.364868 1490.108643,1693.860840 1488.098145,1696.445801 
	C1465.817871,1725.092651 1443.556274,1753.754272 1421.284790,1782.408203 
	C1419.856689,1784.245605 1418.549194,1786.214111 1416.907471,1787.841064 
	C1412.724731,1791.986450 1408.270142,1792.274292 1403.430542,1789.043457 
	C1398.147095,1785.516113 1396.202148,1779.094482 1401.403076,1772.743408 
	C1410.470581,1761.671021 1419.020264,1750.174561 1428.625122,1737.699097 
M2545.281250,570.322754 
	C2525.323975,585.774719 2505.366455,601.226624 2484.899658,617.072998 
	C2492.461670,626.735962 2499.543945,635.786133 2506.877441,645.157288 
	C2522.000000,633.647705 2536.251465,622.801025 2550.800781,611.727539 
	C2553.789307,615.654175 2556.333496,618.997009 2558.927246,622.405151 
	C2547.339600,638.456970 2536.277588,653.780396 2524.893799,669.549683 
	C2532.259521,678.542664 2539.314941,687.156677 2546.844238,696.349182 
	C2558.597168,678.336304 2569.660156,661.381165 2580.809570,644.293640 
	C2585.177734,646.458862 2588.968262,648.337585 2592.975586,650.323914 
	C2614.321533,633.925171 2635.370117,617.755066 2655.170410,602.543701 
	C2645.012939,571.344666 2624.073975,548.672607 2605.010742,524.297607 
	C2584.905029,539.811646 2565.671387,554.652527 2545.281250,570.322754 
M1644.569580,1845.450195 
	C1638.087524,1867.106689 1631.878052,1888.850830 1624.953247,1910.364746 
	C1622.941895,1916.613770 1624.170288,1920.791626 1629.361084,1923.792603 
	C1639.395874,1929.593994 1649.226685,1936.055420 1659.897583,1940.378540 
	C1676.787476,1947.221069 1694.590942,1948.859741 1713.222534,1945.174316 
	C1720.806885,1919.331787 1728.341675,1893.658325 1736.046753,1867.404297 
	C1721.837036,1863.114136 1708.581299,1859.112061 1694.888062,1854.977905 
	C1690.940674,1861.430420 1687.393677,1867.228638 1683.764893,1873.160522 
	C1687.766235,1875.716553 1691.003662,1877.784546 1694.457397,1879.990845 
	C1690.462646,1892.916260 1686.891357,1905.359375 1682.720215,1917.598022 
	C1680.593994,1923.836792 1674.915405,1925.952148 1669.004883,1923.704956 
	C1663.280762,1921.528931 1661.040771,1917.324585 1662.946411,1910.990845 
	C1671.949097,1881.067261 1681.013672,1851.161255 1690.278442,1821.317993 
	C1692.488770,1814.198120 1698.183472,1811.820801 1705.356567,1814.157715 
	C1710.517334,1815.838989 1712.292847,1820.258911 1710.580566,1827.163330 
	C1709.414551,1831.864502 1708.248047,1836.565308 1707.019287,1841.518311 
	C1718.741821,1845.082153 1729.506226,1848.354736 1741.118164,1851.885010 
	C1744.794434,1837.804321 1750.256714,1824.742798 1752.261841,1811.880859 
	C1746.705811,1808.997681 1742.410400,1806.691528 1738.047363,1804.520996 
	C1729.143311,1800.091797 1720.530640,1794.789307 1711.204468,1791.560913 
	C1695.348145,1786.071899 1678.931274,1783.837280 1661.894409,1788.448975 
	C1656.287231,1807.066528 1650.731445,1825.513672 1644.569580,1845.450195 
M1957.230713,1977.369629 
	C1977.284302,1976.750732 1996.814453,1974.158325 2014.484619,1962.769409 
	C2012.919678,1935.484253 2011.381226,1908.661621 2009.792603,1880.962524 
	C1994.965820,1881.743286 1980.910278,1882.483398 1966.859009,1883.223267 
	C1965.342407,1891.355591 1964.094238,1898.047974 1962.814697,1904.908936 
	C1967.401733,1905.874756 1970.882690,1906.607788 1975.297241,1907.537354 
	C1975.782104,1921.318481 1976.636108,1934.880493 1976.572510,1948.438232 
	C1976.541870,1954.919312 1969.956543,1958.803467 1963.612183,1957.240845 
	C1958.373779,1955.950562 1955.906128,1953.033081 1955.468750,1946.286499 
	C1954.262573,1927.683960 1953.289062,1909.066162 1952.255127,1890.452637 
	C1951.590332,1878.486328 1950.758911,1866.523071 1950.427002,1854.546753 
	C1950.213257,1846.832520 1954.568115,1842.665527 1961.925415,1842.544922 
	C1969.339844,1842.423340 1973.270386,1846.288818 1973.627197,1854.295288 
	C1973.826538,1858.767700 1973.752686,1863.252319 1973.808350,1868.314575 
	C1986.500610,1867.489014 1997.718018,1866.759399 2009.878906,1865.968384 
	C2009.003540,1851.719604 2008.160889,1838.005249 2007.361328,1824.991211 
	C2000.589722,1823.877197 1995.083618,1822.591431 1989.509521,1822.134155 
	C1978.271484,1821.212158 1966.929932,1819.660156 1955.753174,1820.349731 
	C1940.850708,1821.269531 1926.338989,1824.875244 1913.681152,1833.959717 
	C1914.567261,1851.351685 1915.395386,1868.298096 1916.302002,1885.240356 
	C1917.654175,1910.505005 1919.271362,1935.758057 1920.299683,1961.035400 
	C1920.562256,1967.487915 1923.057373,1970.987305 1929.077271,1972.198608 
	C1937.846191,1973.963013 1946.644531,1975.581177 1957.230713,1977.369629 
M2572.518799,1489.853149 
	C2576.162842,1492.053223 2579.806885,1494.253296 2584.311523,1496.973022 
	C2590.665039,1486.734131 2596.722900,1476.971924 2603.351807,1466.289307 
	C2591.385254,1458.957886 2579.890137,1451.915161 2569.024902,1445.258301 
	C2564.680176,1449.580811 2560.953857,1453.139771 2557.398926,1456.862183 
	C2553.037354,1461.429321 2548.383301,1465.806641 2544.619629,1470.837646 
	C2532.439941,1487.118408 2525.099854,1505.344116 2523.204834,1526.123413 
	C2540.460693,1536.903320 2557.222900,1547.678223 2574.307861,1557.914795 
	C2582.389893,1562.757080 2591.202637,1559.911987 2596.575195,1551.385010 
	C2601.004883,1544.354248 2605.006836,1537.054810 2609.233643,1529.895142 
	C2611.683350,1525.745605 2614.202881,1521.637451 2616.838623,1517.265747 
	C2628.814209,1524.772583 2639.928223,1531.453491 2650.716553,1538.624268 
	C2656.025146,1542.152832 2656.810059,1547.593018 2653.725098,1552.573853 
	C2650.399170,1557.943604 2645.012695,1559.359253 2639.196045,1556.093872 
	C2634.376221,1553.388062 2629.732422,1550.368164 2624.508301,1547.180786 
	C2617.934570,1557.681641 2611.849609,1567.401367 2605.431396,1577.653687 
	C2616.292480,1584.542114 2626.353760,1590.923462 2636.776855,1597.534058 
	C2667.253174,1579.893188 2679.674805,1551.781860 2685.820312,1518.750732 
	C2667.918945,1507.665527 2650.861572,1496.751709 2633.446777,1486.441895 
	C2621.739258,1479.510864 2614.475342,1481.636597 2606.208252,1492.756958 
	C2598.897949,1502.590698 2591.364502,1512.258667 2583.759766,1522.222412 
	C2575.112305,1516.752075 2567.204590,1511.888794 2559.454346,1506.786499 
	C2555.760254,1504.354492 2554.501709,1500.628052 2555.509766,1496.303711 
	C2556.608398,1491.589722 2559.679443,1488.697876 2564.432861,1488.148804 
	C2566.633301,1487.894531 2568.954102,1488.683838 2572.518799,1489.853149 
M2113.783691,236.903732 
	C2115.257080,232.300751 2116.730225,227.697784 2118.417725,222.425797 
	C2106.535400,220.544952 2095.803223,218.846207 2084.852051,217.112762 
	C2083.656006,220.742386 2082.683838,223.525635 2081.819580,226.341888 
	C2074.408691,250.492081 2067.107178,274.676666 2059.489258,298.761292 
	C2058.671143,301.348053 2059.307617,305.680878 2053.887939,306.253937 
	C2055.431885,275.103088 2056.956055,244.347549 2058.503662,213.120087 
	C2046.658081,211.217957 2036.032593,209.511734 2024.599976,207.675873 
	C2023.481201,259.682373 2022.388916,310.458069 2021.294922,361.316284 
	C2037.560791,363.654175 2052.605713,365.816589 2068.167480,368.053253 
	C2083.364746,324.374451 2098.321045,281.388275 2113.783691,236.903732 
M2300.315430,460.524323 
	C2315.331055,469.661377 2330.346680,478.798462 2346.170654,488.427460 
	C2350.351074,481.570251 2354.234863,475.199554 2358.504395,468.196350 
	C2344.968750,459.903015 2332.053467,451.989746 2318.883789,443.920593 
	C2326.602295,431.232208 2333.677246,419.602051 2341.143066,407.329437 
	C2350.008301,412.622528 2358.475342,417.677856 2367.373535,422.990631 
	C2373.110596,416.800659 2378.380371,411.114899 2383.950928,405.104797 
	C2373.426025,398.614502 2363.890869,392.734711 2353.866211,386.552887 
	C2360.426514,375.714996 2366.588135,365.536316 2373.184570,354.639160 
	C2386.674072,362.681244 2399.659424,370.422607 2412.989014,378.369293 
	C2417.259766,371.291016 2420.970215,365.140991 2425.059814,358.362823 
	C2397.612549,341.780090 2371.004395,325.704346 2343.929443,309.346405 
	C2339.667725,316.502930 2335.979736,322.695953 2332.334717,328.816589 
	C2334.706299,330.933746 2336.619385,332.641449 2338.779541,334.569824 
	C2316.764648,371.023987 2294.985107,407.088684 2272.850586,443.741577 
	C2282.112549,449.438354 2290.569824,454.640228 2300.315430,460.524323 
M2232.177246,1780.993774 
	C2240.360596,1777.552490 2248.544189,1774.111084 2257.416992,1770.379883 
	C2254.324951,1762.891602 2251.598145,1756.288452 2248.516846,1748.826416 
	C2219.004639,1761.178345 2190.375000,1773.160767 2161.196045,1785.373047 
	C2164.447021,1793.078491 2167.222412,1799.657227 2169.923096,1806.059082 
	C2173.406738,1805.454712 2175.853027,1805.030396 2178.508789,1804.569702 
	C2194.962158,1843.966431 2211.194336,1882.833496 2227.640381,1922.212769 
	C2254.524414,1910.975342 2280.422119,1900.150269 2306.779785,1889.132812 
	C2303.403564,1881.168579 2300.503662,1874.328125 2297.526611,1867.305298 
	C2282.765869,1873.400391 2269.291992,1878.964111 2255.099121,1884.824829 
	C2249.503906,1871.401245 2244.182617,1858.634644 2238.606201,1845.255981 
	C2248.321533,1841.074951 2257.318604,1837.203125 2266.603271,1833.207520 
	C2264.938965,1824.898315 2263.458252,1817.506470 2261.885254,1809.654541 
	C2250.569092,1814.217651 2240.169189,1818.411255 2229.181152,1822.842041 
	C2224.320801,1811.151489 2219.758545,1800.177734 2214.860107,1788.395874 
	C2220.498047,1786.006714 2225.639648,1783.827881 2232.177246,1780.993774 
M1416.939941,395.769623 
	C1439.234375,429.628876 1461.528809,463.488098 1484.175781,497.882660 
	C1508.492554,481.877899 1531.980591,466.418640 1555.960815,450.635376 
	C1551.471680,443.861084 1547.469971,437.822449 1543.003784,431.082916 
	C1530.085083,439.536835 1517.623413,447.691589 1504.341797,456.382996 
	C1496.190308,444.044373 1488.195679,431.943298 1479.992310,419.526337 
	C1488.659058,413.662231 1496.591064,408.295258 1505.239014,402.443878 
	C1502.717896,395.604797 1500.299438,389.044006 1497.683105,381.946747 
	C1487.297241,388.732574 1478.144775,394.712585 1468.126465,401.258209 
	C1460.925537,390.368927 1454.021851,379.929199 1446.808105,369.020538 
	C1460.035400,360.240723 1472.632324,351.879303 1485.517090,343.326813 
	C1480.778564,336.233490 1476.783569,330.253174 1472.502075,323.843994 
	C1445.626221,341.561920 1419.637085,358.695343 1393.414551,375.982544 
	C1398.116211,383.001038 1402.133057,388.997223 1405.852051,394.548706 
	C1409.998779,394.301147 1413.091064,388.862946 1416.939941,395.769623 
M2396.074951,1649.121704 
	C2384.748291,1658.775635 2373.421875,1668.429443 2361.898682,1678.250854 
	C2367.421631,1684.637207 2372.145996,1690.099854 2377.191895,1695.934692 
	C2384.785400,1689.461670 2391.817139,1683.467651 2399.338867,1677.056152 
	C2427.439209,1709.848877 2455.073730,1742.097900 2482.996338,1774.683228 
	C2492.807129,1766.168701 2501.769043,1758.390991 2511.257812,1750.156006 
	C2483.240234,1717.363037 2455.832764,1685.283936 2428.095459,1652.819092 
	C2435.698486,1646.185669 2442.886475,1639.914062 2450.268066,1633.473877 
	C2444.832764,1627.303223 2440.041260,1621.863525 2435.003662,1616.144287 
	C2422.050293,1627.111572 2409.601074,1637.652344 2396.074951,1649.121704 
z"/>
<path fill="#9F1F30" opacity="1.000000" stroke="none" 
	d="
M2279.858398,514.104370 
	C2328.946777,544.951416 2373.347900,580.456421 2412.864258,621.942749 
	C2490.367432,703.309631 2545.173584,797.769470 2576.300537,905.844910 
	C2588.869873,949.486023 2597.870361,993.854919 2600.051025,1039.252197 
	C2601.615723,1071.828491 2603.158936,1104.613037 2601.284180,1137.106934 
	C2596.402588,1221.717163 2575.817871,1302.688110 2540.176758,1379.754517 
	C2502.195557,1461.880859 2449.909912,1533.600952 2383.646240,1595.067993 
	C2323.931152,1650.460449 2256.258789,1693.563843 2180.999756,1724.831909 
	C2128.733643,1746.546875 2074.552734,1761.170776 2018.661987,1769.537720 
	C1973.373291,1776.317627 1927.728760,1778.101196 1882.105347,1775.446655 
	C1786.449219,1769.880981 1695.630127,1745.578735 1610.241699,1701.837280 
	C1554.464111,1673.264404 1503.655029,1637.561157 1457.553345,1595.022949 
	C1396.617920,1538.797729 1347.626831,1473.597778 1310.387329,1399.674683 
	C1279.771851,1338.900879 1258.886841,1274.837646 1247.698242,1207.596191 
	C1240.126221,1162.088989 1236.777222,1116.326294 1238.429199,1070.290894 
	C1240.382080,1015.868469 1248.562500,962.305176 1263.343262,909.825195 
	C1287.016968,825.770203 1325.340576,748.977295 1378.460449,679.709534 
	C1437.900757,602.200012 1510.646606,540.160583 1596.579346,493.569611 
	C1660.092773,459.133850 1727.447754,435.574738 1798.445923,422.844360 
	C1823.280518,418.391357 1848.552979,415.951660 1873.734497,413.992706 
	C1895.282349,412.316498 1917.005127,411.768219 1938.616699,412.247864 
	C1999.848633,413.606781 2059.821777,423.333069 2118.489258,441.105164 
	C2175.259277,458.302460 2228.787109,482.587585 2279.858398,514.104370 
M2554.339844,1151.425049 
	C2554.825195,1147.463379 2555.568604,1143.513672 2555.755615,1139.538086 
	C2557.368652,1105.261841 2557.672607,1071.039795 2554.507568,1036.772095 
	C2551.407471,1003.208252 2546.140869,970.074341 2537.804688,937.458557 
	C2510.593018,830.994263 2459.312500,737.578613 2384.152832,657.512573 
	C2323.367188,592.759155 2251.821533,543.089539 2170.173340,508.016418 
	C2103.426758,479.344513 2033.663574,462.894897 1961.307617,458.490601 
	C1917.404419,455.818268 1873.471069,457.233948 1829.735962,463.602814 
	C1764.604858,473.087433 1702.390137,491.857147 1643.218384,520.519958 
	C1574.774292,553.674438 1514.322266,597.868469 1461.518066,652.686523 
	C1417.239868,698.653381 1380.738892,750.066345 1351.867554,806.878540 
	C1311.464111,886.383240 1289.369873,970.959900 1284.475708,1059.850220 
	C1282.019043,1104.470947 1284.458008,1148.994385 1291.472900,1193.291626 
	C1302.196533,1261.007446 1323.183105,1325.204712 1354.608276,1386.093750 
	C1392.052490,1458.645264 1441.882202,1521.393677 1503.389404,1574.959961 
	C1555.601074,1620.430542 1613.739868,1656.330078 1677.708862,1682.805176 
	C1743.227417,1709.921387 1811.485962,1725.525024 1882.171387,1729.542603 
	C1919.069702,1731.639771 1956.028076,1730.811768 1992.920044,1726.518921 
	C2036.095215,1721.494873 2078.358643,1712.663940 2119.523926,1698.946899 
	C2226.422363,1663.325928 2317.836914,1603.800781 2393.410889,1520.122192 
	C2453.445801,1453.649170 2497.409668,1377.797974 2525.517334,1292.793701 
	C2540.519287,1247.423828 2550.218506,1200.912842 2554.339844,1151.425049 
z"/>
<path fill="#FBFBFC" opacity="1.000000" stroke="none" 
	d="
M1725.629272,233.813629 
	C1735.932129,248.233276 1745.798950,262.026093 1755.730591,275.772125 
	C1755.972656,276.107025 1756.935913,275.920837 1758.963745,276.104614 
	C1755.294067,257.759674 1751.694580,239.765182 1747.970581,221.148590 
	C1759.982544,218.626801 1771.271851,216.256729 1783.663452,213.655228 
	C1793.927002,263.213959 1804.076538,312.221985 1814.430786,362.218567 
	C1802.529785,364.817352 1791.293457,367.270996 1779.339722,369.881256 
	C1769.074097,352.926208 1758.870361,336.073303 1748.666504,319.220398 
	C1747.788208,319.569031 1746.909790,319.917694 1746.031494,320.266327 
	C1749.588989,337.848663 1753.146484,355.431030 1756.968872,374.322388 
	C1744.920044,376.808380 1733.420532,379.181091 1721.083862,381.726471 
	C1712.421875,339.815155 1703.891846,298.543457 1695.279297,256.871674 
	C1692.609619,256.691650 1690.089355,256.521698 1687.046387,256.316498 
	C1685.662354,249.381210 1684.308716,242.598053 1682.714844,234.611267 
	C1694.655029,232.204941 1706.242188,229.807434 1717.858643,227.560776 
	C1722.222290,226.716812 1723.089966,230.857529 1725.629272,233.813629 
z"/>
<path fill="#FBFBFC" opacity="1.000000" stroke="none" 
	d="
M1220.808472,1542.114014 
	C1206.628174,1551.338501 1192.447998,1560.562988 1177.354858,1570.381348 
	C1170.669189,1560.526489 1164.069702,1550.798584 1156.968140,1540.330688 
	C1192.524292,1516.366943 1227.503296,1492.791992 1262.814697,1468.993164 
	C1261.794067,1466.346924 1260.890259,1464.003540 1259.807983,1461.197510 
	C1265.759521,1457.272461 1271.530640,1453.466309 1278.298950,1449.002686 
	C1285.581421,1459.594482 1292.651978,1469.878052 1300.223511,1480.890015 
	C1289.154907,1498.222168 1278.039917,1515.626831 1266.924927,1533.031494 
	C1267.572021,1533.650879 1268.218994,1534.270142 1268.866089,1534.889526 
	C1284.724609,1525.676147 1299.315063,1514.407837 1315.883789,1504.220215 
	C1322.523804,1514.061157 1329.136719,1523.861816 1336.239990,1534.389282 
	C1294.086060,1562.741699 1252.517700,1590.700073 1210.218384,1619.150024 
	C1203.329590,1608.996704 1196.851685,1599.448853 1190.156616,1589.580933 
	C1201.021729,1574.845459 1211.657349,1560.421387 1223.045166,1544.997070 
	C1223.819214,1542.866089 1223.841064,1541.735229 1223.862915,1540.604492 
	C1222.844727,1541.107666 1221.826660,1541.610962 1220.808472,1542.114014 
z"/>
<path fill="#FAFBFB" opacity="1.000000" stroke="none" 
	d="
M1225.311279,644.599609 
	C1208.769531,632.848938 1192.807495,621.525879 1176.303711,609.818604 
	C1194.733398,584.062683 1209.741455,556.729553 1237.671265,539.355225 
	C1272.974365,563.897217 1309.261841,589.123535 1345.675537,614.437561 
	C1344.802979,627.341003 1340.499634,638.903625 1333.818726,649.258423 
	C1323.380005,665.437622 1312.025757,681.026245 1300.411377,697.800903 
	C1275.133301,679.899597 1250.512085,662.463440 1225.311279,644.599609 
M1284.957886,641.984924 
	C1289.287476,645.058777 1293.453979,648.402954 1297.986816,651.140259 
	C1304.062744,654.809204 1311.031494,651.334351 1312.242554,644.313171 
	C1313.064941,639.543884 1311.162476,636.078064 1307.249756,633.270386 
	C1284.060669,616.631042 1261.002319,599.808960 1237.763550,583.239929 
	C1231.875366,579.041748 1226.432129,579.904358 1222.878662,584.734619 
	C1219.060547,589.924622 1220.216064,595.408875 1226.193115,600.181702 
	C1227.747437,601.422913 1229.406494,602.534119 1231.030029,603.687561 
	C1248.614868,616.181091 1266.202148,628.671021 1284.957886,641.984924 
z"/>
<path fill="#FAFAFB" opacity="1.000000" stroke="none" 
	d="
M1428.206055,1738.277466 
	C1419.020264,1750.174561 1410.470581,1761.671021 1401.403076,1772.743408 
	C1396.202148,1779.094482 1398.147095,1785.516113 1403.430542,1789.043457 
	C1408.270142,1792.274292 1412.724731,1791.986450 1416.907471,1787.841064 
	C1418.549194,1786.214111 1419.856689,1784.245605 1421.284790,1782.408203 
	C1443.556274,1753.754272 1465.817871,1725.092651 1488.098145,1696.445801 
	C1490.108643,1693.860840 1492.233765,1691.364868 1494.661133,1688.392212 
	C1504.318604,1695.783936 1513.465820,1702.785034 1523.274902,1710.292847 
	C1493.731689,1748.485229 1464.681396,1786.040283 1435.238770,1824.102661 
	C1401.814209,1815.771240 1377.125244,1797.125366 1360.879395,1765.996216 
	C1385.348633,1734.485962 1409.594604,1703.263184 1434.215820,1671.557007 
	C1432.651611,1669.530518 1431.133789,1667.564087 1429.107178,1664.938599 
	C1433.452271,1659.355713 1437.874634,1653.673340 1442.901489,1647.214355 
	C1454.449829,1656.265503 1465.589111,1664.996094 1477.649780,1674.448730 
	C1461.063232,1695.848267 1444.844116,1716.773682 1428.206055,1738.277466 
z"/>
<path fill="#FAFBFB" opacity="1.000000" stroke="none" 
	d="
M2545.859619,569.908081 
	C2565.671387,554.652527 2584.905029,539.811646 2605.010742,524.297607 
	C2624.073975,548.672607 2645.012939,571.344666 2655.170410,602.543701 
	C2635.370117,617.755066 2614.321533,633.925171 2592.975586,650.323914 
	C2588.968262,648.337585 2585.177734,646.458862 2580.809570,644.293640 
	C2569.660156,661.381165 2558.597168,678.336304 2546.844238,696.349182 
	C2539.314941,687.156677 2532.259521,678.542664 2524.893799,669.549683 
	C2536.277588,653.780396 2547.339600,638.456970 2558.927246,622.405151 
	C2556.333496,618.997009 2553.789307,615.654175 2550.800781,611.727539 
	C2536.251465,622.801025 2522.000000,633.647705 2506.877441,645.157288 
	C2499.543945,635.786133 2492.461670,626.735962 2484.899658,617.072998 
	C2505.366455,601.226624 2525.323975,585.774719 2545.859619,569.908081 
M2613.755859,573.021667 
	C2609.967041,570.437927 2605.939697,568.742554 2601.795898,571.933472 
	C2593.087158,578.639709 2584.362305,585.347107 2575.999268,592.470947 
	C2571.850586,596.004883 2572.043945,600.589294 2575.437744,604.906921 
	C2579.256348,609.765198 2584.081787,611.400574 2588.375244,608.347717 
	C2597.600586,601.787781 2606.694336,595.006836 2615.459473,587.848389 
	C2620.946777,583.367126 2620.488770,579.875488 2613.755859,573.021667 
z"/>
<path fill="#FAFAFB" opacity="1.000000" stroke="none" 
	d="
M1644.872559,1844.705566 
	C1650.731445,1825.513672 1656.287231,1807.066528 1661.894409,1788.448975 
	C1678.931274,1783.837280 1695.348145,1786.071899 1711.204468,1791.560913 
	C1720.530640,1794.789307 1729.143311,1800.091797 1738.047363,1804.520996 
	C1742.410400,1806.691528 1746.705811,1808.997681 1752.261841,1811.880859 
	C1750.256714,1824.742798 1744.794434,1837.804321 1741.118164,1851.885010 
	C1729.506226,1848.354736 1718.741821,1845.082153 1707.019287,1841.518311 
	C1708.248047,1836.565308 1709.414551,1831.864502 1710.580566,1827.163330 
	C1712.292847,1820.258911 1710.517334,1815.838989 1705.356567,1814.157715 
	C1698.183472,1811.820801 1692.488770,1814.198120 1690.278442,1821.317993 
	C1681.013672,1851.161255 1671.949097,1881.067261 1662.946411,1910.990845 
	C1661.040771,1917.324585 1663.280762,1921.528931 1669.004883,1923.704956 
	C1674.915405,1925.952148 1680.593994,1923.836792 1682.720215,1917.598022 
	C1686.891357,1905.359375 1690.462646,1892.916260 1694.457397,1879.990845 
	C1691.003662,1877.784546 1687.766235,1875.716553 1683.764893,1873.160522 
	C1687.393677,1867.228638 1690.940674,1861.430420 1694.888062,1854.977905 
	C1708.581299,1859.112061 1721.837036,1863.114136 1736.046753,1867.404297 
	C1728.341675,1893.658325 1720.806885,1919.331787 1713.222534,1945.174316 
	C1694.590942,1948.859741 1676.787476,1947.221069 1659.897583,1940.378540 
	C1649.226685,1936.055420 1639.395874,1929.593994 1629.361084,1923.792603 
	C1624.170288,1920.791626 1622.941895,1916.613770 1624.953247,1910.364746 
	C1631.878052,1888.850830 1638.087524,1867.106689 1644.872559,1844.705566 
z"/>
<path fill="#FAFAFB" opacity="1.000000" stroke="none" 
	d="
M1956.330566,1977.315674 
	C1946.644531,1975.581177 1937.846191,1973.963013 1929.077271,1972.198608 
	C1923.057373,1970.987305 1920.562256,1967.487915 1920.299683,1961.035400 
	C1919.271362,1935.758057 1917.654175,1910.505005 1916.302002,1885.240356 
	C1915.395386,1868.298096 1914.567261,1851.351685 1913.681152,1833.959717 
	C1926.338989,1824.875244 1940.850708,1821.269531 1955.753174,1820.349731 
	C1966.929932,1819.660156 1978.271484,1821.212158 1989.509521,1822.134155 
	C1995.083618,1822.591431 2000.589722,1823.877197 2007.361328,1824.991211 
	C2008.160889,1838.005249 2009.003540,1851.719604 2009.878906,1865.968384 
	C1997.718018,1866.759399 1986.500610,1867.489014 1973.808350,1868.314575 
	C1973.752686,1863.252319 1973.826538,1858.767700 1973.627197,1854.295288 
	C1973.270386,1846.288818 1969.339844,1842.423340 1961.925415,1842.544922 
	C1954.568115,1842.665527 1950.213257,1846.832520 1950.427002,1854.546753 
	C1950.758911,1866.523071 1951.590332,1878.486328 1952.255127,1890.452637 
	C1953.289062,1909.066162 1954.262573,1927.683960 1955.468750,1946.286499 
	C1955.906128,1953.033081 1958.373779,1955.950562 1963.612183,1957.240845 
	C1969.956543,1958.803467 1976.541870,1954.919312 1976.572510,1948.438232 
	C1976.636108,1934.880493 1975.782104,1921.318481 1975.297241,1907.537354 
	C1970.882690,1906.607788 1967.401733,1905.874756 1962.814697,1904.908936 
	C1964.094238,1898.047974 1965.342407,1891.355591 1966.859009,1883.223267 
	C1980.910278,1882.483398 1994.965820,1881.743286 2009.792603,1880.962524 
	C2011.381226,1908.661621 2012.919678,1935.484253 2014.484619,1962.769409 
	C1996.814453,1974.158325 1977.284302,1976.750732 1956.330566,1977.315674 
z"/>
<path fill="#F9FAFB" opacity="1.000000" stroke="none" 
	d="
M2571.869629,1489.426514 
	C2568.954102,1488.683838 2566.633301,1487.894531 2564.432861,1488.148804 
	C2559.679443,1488.697876 2556.608398,1491.589722 2555.509766,1496.303711 
	C2554.501709,1500.628052 2555.760254,1504.354492 2559.454346,1506.786499 
	C2567.204590,1511.888794 2575.112305,1516.752075 2583.759766,1522.222412 
	C2591.364502,1512.258667 2598.897949,1502.590698 2606.208252,1492.756958 
	C2614.475342,1481.636597 2621.739258,1479.510864 2633.446777,1486.441895 
	C2650.861572,1496.751709 2667.918945,1507.665527 2685.820312,1518.750732 
	C2679.674805,1551.781860 2667.253174,1579.893188 2636.776855,1597.534058 
	C2626.353760,1590.923462 2616.292480,1584.542114 2605.431396,1577.653687 
	C2611.849609,1567.401367 2617.934570,1557.681641 2624.508301,1547.180786 
	C2629.732422,1550.368164 2634.376221,1553.388062 2639.196045,1556.093872 
	C2645.012695,1559.359253 2650.399170,1557.943604 2653.725098,1552.573853 
	C2656.810059,1547.593018 2656.025146,1542.152832 2650.716553,1538.624268 
	C2639.928223,1531.453491 2628.814209,1524.772583 2616.838623,1517.265747 
	C2614.202881,1521.637451 2611.683350,1525.745605 2609.233643,1529.895142 
	C2605.006836,1537.054810 2601.004883,1544.354248 2596.575195,1551.385010 
	C2591.202637,1559.911987 2582.389893,1562.757080 2574.307861,1557.914795 
	C2557.222900,1547.678223 2540.460693,1536.903320 2523.204834,1526.123413 
	C2525.099854,1505.344116 2532.439941,1487.118408 2544.619629,1470.837646 
	C2548.383301,1465.806641 2553.037354,1461.429321 2557.398926,1456.862183 
	C2560.953857,1453.139771 2564.680176,1449.580811 2569.024902,1445.258301 
	C2579.890137,1451.915161 2591.385254,1458.957886 2603.351807,1466.289307 
	C2596.722900,1476.971924 2590.665039,1486.734131 2584.311523,1496.973022 
	C2579.806885,1494.253296 2576.162842,1492.053223 2571.869629,1489.426514 
z"/>
<path fill="#FAFBFB" opacity="1.000000" stroke="none" 
	d="
M2113.530518,237.652924 
	C2098.321045,281.388275 2083.364746,324.374451 2068.167480,368.053253 
	C2052.605713,365.816589 2037.560791,363.654175 2021.294922,361.316284 
	C2022.388916,310.458069 2023.481201,259.682373 2024.599976,207.675873 
	C2036.032593,209.511734 2046.658081,211.217957 2058.503662,213.120087 
	C2056.956055,244.347549 2055.431885,275.103088 2053.887939,306.253937 
	C2059.307617,305.680878 2058.671143,301.348053 2059.489258,298.761292 
	C2067.107178,274.676666 2074.408691,250.492081 2081.819580,226.341888 
	C2082.683838,223.525635 2083.656006,220.742386 2084.852051,217.112762 
	C2095.803223,218.846207 2106.535400,220.544952 2118.417725,222.425797 
	C2116.730225,227.697784 2115.257080,232.300751 2113.530518,237.652924 
z"/>
<path fill="#F9FAFB" opacity="1.000000" stroke="none" 
	d="
M2299.671387,460.183228 
	C2290.569824,454.640228 2282.112549,449.438354 2272.850586,443.741577 
	C2294.985107,407.088684 2316.764648,371.023987 2338.779541,334.569824 
	C2336.619385,332.641449 2334.706299,330.933746 2332.334717,328.816589 
	C2335.979736,322.695953 2339.667725,316.502930 2343.929443,309.346405 
	C2371.004395,325.704346 2397.612549,341.780090 2425.059814,358.362823 
	C2420.970215,365.140991 2417.259766,371.291016 2412.989014,378.369293 
	C2399.659424,370.422607 2386.674072,362.681244 2373.184570,354.639160 
	C2366.588135,365.536316 2360.426514,375.714996 2353.866211,386.552887 
	C2363.890869,392.734711 2373.426025,398.614502 2383.950928,405.104797 
	C2378.380371,411.114899 2373.110596,416.800659 2367.373535,422.990631 
	C2358.475342,417.677856 2350.008301,412.622528 2341.143066,407.329437 
	C2333.677246,419.602051 2326.602295,431.232208 2318.883789,443.920593 
	C2332.053467,451.989746 2344.968750,459.903015 2358.504395,468.196350 
	C2354.234863,475.199554 2350.351074,481.570251 2346.170654,488.427460 
	C2330.346680,478.798462 2315.331055,469.661377 2299.671387,460.183228 
z"/>
<path fill="#F9FAFB" opacity="1.000000" stroke="none" 
	d="
M2231.479248,1781.321411 
	C2225.639648,1783.827881 2220.498047,1786.006714 2214.860107,1788.395874 
	C2219.758545,1800.177734 2224.320801,1811.151489 2229.181152,1822.842041 
	C2240.169189,1818.411255 2250.569092,1814.217651 2261.885254,1809.654541 
	C2263.458252,1817.506470 2264.938965,1824.898315 2266.603271,1833.207520 
	C2257.318604,1837.203125 2248.321533,1841.074951 2238.606201,1845.255981 
	C2244.182617,1858.634644 2249.503906,1871.401245 2255.099121,1884.824829 
	C2269.291992,1878.964111 2282.765869,1873.400391 2297.526611,1867.305298 
	C2300.503662,1874.328125 2303.403564,1881.168579 2306.779785,1889.132812 
	C2280.422119,1900.150269 2254.524414,1910.975342 2227.640381,1922.212769 
	C2211.194336,1882.833496 2194.962158,1843.966431 2178.508789,1804.569702 
	C2175.853027,1805.030396 2173.406738,1805.454712 2169.923096,1806.059082 
	C2167.222412,1799.657227 2164.447021,1793.078491 2161.196045,1785.373047 
	C2190.375000,1773.160767 2219.004639,1761.178345 2248.516846,1748.826416 
	C2251.598145,1756.288452 2254.324951,1762.891602 2257.416992,1770.379883 
	C2248.544189,1774.111084 2240.360596,1777.552490 2231.479248,1781.321411 
z"/>
<path fill="#F9FAFB" opacity="1.000000" stroke="none" 
	d="
M1416.523315,395.136536 
	C1413.091064,388.862946 1409.998779,394.301147 1405.852051,394.548706 
	C1402.133057,388.997223 1398.116211,383.001038 1393.414551,375.982544 
	C1419.637085,358.695343 1445.626221,341.561920 1472.502075,323.843994 
	C1476.783569,330.253174 1480.778564,336.233490 1485.517090,343.326813 
	C1472.632324,351.879303 1460.035400,360.240723 1446.808105,369.020538 
	C1454.021851,379.929199 1460.925537,390.368927 1468.126465,401.258209 
	C1478.144775,394.712585 1487.297241,388.732574 1497.683105,381.946747 
	C1500.299438,389.044006 1502.717896,395.604797 1505.239014,402.443878 
	C1496.591064,408.295258 1488.659058,413.662231 1479.992310,419.526337 
	C1488.195679,431.943298 1496.190308,444.044373 1504.341797,456.382996 
	C1517.623413,447.691589 1530.085083,439.536835 1543.003784,431.082916 
	C1547.469971,437.822449 1551.471680,443.861084 1555.960815,450.635376 
	C1531.980591,466.418640 1508.492554,481.877899 1484.175781,497.882660 
	C1461.528809,463.488098 1439.234375,429.628876 1416.523315,395.136536 
z"/>
<path fill="#F8C105" opacity="1.000000" stroke="none" 
	d="
M2803.958984,963.927246 
	C2802.390137,967.162476 2801.112061,970.581360 2799.204590,973.602783 
	C2788.009033,991.338318 2776.659424,1008.976624 2765.380859,1026.659912 
	C2763.623047,1029.415649 2761.962646,1032.233276 2759.788818,1035.788696 
	C2773.593994,1044.305664 2787.030518,1052.595215 2800.467041,1060.884644 
	C2800.334717,1061.478638 2800.202637,1062.072754 2800.070312,1062.666748 
	C2783.632324,1063.798706 2767.194092,1064.930786 2750.035156,1066.112427 
	C2748.641846,1081.519653 2747.301514,1096.343750 2745.960938,1111.167847 
	C2745.482422,1111.411621 2745.003662,1111.655396 2744.525146,1111.899170 
	C2736.551758,1098.532593 2728.578369,1085.166138 2720.335938,1071.348633 
	C2694.597656,1080.916382 2669.463867,1090.259521 2644.330078,1099.602539 
	C2644.026855,1099.161987 2643.723389,1098.721558 2643.420166,1098.281128 
	C2662.696289,1080.196411 2681.972168,1062.111694 2701.806152,1043.503540 
	C2694.023926,1029.896851 2686.404785,1016.575256 2678.785645,1003.253601 
	C2679.131592,1002.851196 2679.477783,1002.448792 2679.823730,1002.046448 
	C2694.499512,1008.794739 2709.175293,1015.543030 2724.490234,1022.585266 
	C2750.484619,1001.784363 2776.439453,981.015198 2803.463379,960.203247 
	C2804.971924,960.709351 2805.411377,961.258362 2805.850830,961.807495 
	C2805.850830,961.807495 2805.839355,961.961914 2805.263672,962.005615 
	C2804.445068,962.675232 2804.201904,963.301208 2803.958984,963.927246 
z"/>
<path fill="#F8C105" opacity="1.000000" stroke="none" 
	d="
M1194.041626,1097.516113 
	C1170.118530,1088.651489 1146.195435,1079.786865 1121.542358,1070.651733 
	C1113.395264,1084.474487 1105.559937,1097.768188 1097.724609,1111.061890 
	C1097.168945,1110.930420 1096.613403,1110.798950 1096.057861,1110.667603 
	C1094.654053,1096.004395 1093.250244,1081.341187 1091.729004,1065.450562 
	C1074.960938,1064.205688 1058.361084,1062.973389 1041.761230,1061.741089 
	C1041.597656,1061.219971 1041.434204,1060.698975 1041.270630,1060.177856 
	C1054.708008,1051.917725 1068.145508,1043.657593 1082.127319,1035.062866 
	C1065.678467,1008.843689 1049.473633,983.013489 1033.651489,956.573975 
	C1034.034058,955.964661 1033.958740,956.048035 1033.958740,956.048035 
	C1036.677612,957.836609 1039.562622,959.418274 1042.089722,961.445801 
	C1066.966797,981.404053 1091.784424,1001.436340 1117.180176,1021.899963 
	C1131.586060,1015.242065 1145.973267,1008.592834 1161.064209,1001.861938 
	C1161.768066,1001.780273 1161.684204,1001.689148 1161.684204,1001.689148 
	C1160.601440,1004.646729 1159.884033,1007.807556 1158.371582,1010.526001 
	C1152.415649,1021.231140 1146.209595,1031.796997 1139.871582,1042.805054 
	C1157.957397,1059.655029 1175.685059,1076.171387 1193.779541,1094.157959 
	C1194.111328,1096.257690 1194.076416,1096.886963 1194.041626,1097.516113 
z"/>
<path fill="#FAFAFB" opacity="1.000000" stroke="none" 
	d="
M2396.613281,1648.657471 
	C2409.601074,1637.652344 2422.050293,1627.111572 2435.003662,1616.144287 
	C2440.041260,1621.863525 2444.832764,1627.303223 2450.268066,1633.473877 
	C2442.886475,1639.914062 2435.698486,1646.185669 2428.095459,1652.819092 
	C2455.832764,1685.283936 2483.240234,1717.363037 2511.257812,1750.156006 
	C2501.769043,1758.390991 2492.807129,1766.168701 2482.996338,1774.683228 
	C2455.073730,1742.097900 2427.439209,1709.848877 2399.338867,1677.056152 
	C2391.817139,1683.467651 2384.785400,1689.461670 2377.191895,1695.934692 
	C2372.145996,1690.099854 2367.421631,1684.637207 2361.898682,1678.250854 
	C2373.421875,1668.429443 2384.748291,1658.775635 2396.613281,1648.657471 
z"/>
<path fill="#A0851F" opacity="1.000000" stroke="none" 
	d="
M1194.431519,1097.868408 
	C1194.076416,1096.886963 1194.111328,1096.257690 1194.180908,1094.683594 
	C1195.949463,1095.088623 1197.683105,1096.438477 1199.416870,1097.788330 
	C1199.223877,1098.252319 1199.030884,1098.716187 1198.837891,1099.180054 
	C1197.499023,1098.860229 1196.160156,1098.540405 1194.431519,1097.868408 
z"/>
<path fill="#B3921A" opacity="1.000000" stroke="none" 
	d="
M2806.484375,961.703857 
	C2805.411377,961.258362 2804.971924,960.709351 2804.061035,959.898315 
	C2805.057617,958.263855 2806.525879,956.891296 2808.818359,955.591614 
	C2809.642334,955.664490 2810.087891,956.073059 2810.087891,956.073059 
	C2809.097900,957.915466 2808.107910,959.757874 2806.484375,961.703857 
z"/>
<path fill="#F8C105" opacity="1.000000" stroke="none" 
	d="
M1032.266357,953.559448 
	C1032.790405,954.035767 1033.314453,954.512085 1033.898682,955.518188 
	C1033.958740,956.048035 1034.034058,955.964661 1034.073486,955.921631 
	C1033.451050,955.584534 1032.789062,955.290405 1032.224121,954.352905 
	C1032.321167,953.709534 1032.266357,953.559448 1032.266357,953.559448 
z"/>
<path fill="#F8C105" opacity="1.000000" stroke="none" 
	d="
M1032.401123,953.707886 
	C1032.480957,953.706177 1031.916016,953.644409 1031.916016,953.644409 
	C1031.916016,953.644409 1032.210205,953.937927 1032.238281,953.748657 
	C1032.266357,953.559448 1032.321167,953.709534 1032.401123,953.707886 
z"/>
<path fill="#F8C105" opacity="1.000000" stroke="none" 
	d="
M1161.801514,1001.832397 
	C1161.834961,1001.884583 1162.466919,1001.454773 1162.466919,1001.454773 
	C1162.466919,1001.454773 1162.106567,1001.888733 1161.895386,1001.788940 
	C1161.684204,1001.689148 1161.768066,1001.780273 1161.801514,1001.832397 
z"/>
<path fill="#B3921A" opacity="1.000000" stroke="none" 
	d="
M2804.247559,963.573120 
	C2804.201904,963.301208 2804.445068,962.675232 2805.213379,961.946533 
	C2805.348145,962.311096 2804.947266,962.769531 2804.247559,963.573120 
z"/>
<path fill="#B3921A" opacity="1.000000" stroke="none" 
	d="
M2809.421387,955.458496 
	C2809.651855,954.984863 2810.103271,954.717224 2810.554688,954.449463 
	C2810.637451,954.860413 2810.719971,955.271484 2810.445312,955.877808 
	C2810.087891,956.073059 2809.642334,955.664490 2809.421387,955.458496 
z"/>
<path fill="#011F3E" opacity="1.000000" stroke="none" 
	d="
M2554.289062,1152.341431 
	C2550.218506,1200.912842 2540.519287,1247.423828 2525.517334,1292.793701 
	C2497.409668,1377.797974 2453.445801,1453.649170 2393.410889,1520.122192 
	C2317.836914,1603.800781 2226.422363,1663.325928 2119.523926,1698.946899 
	C2078.358643,1712.663940 2036.095215,1721.494873 1992.920044,1726.518921 
	C1956.028076,1730.811768 1919.069702,1731.639771 1882.171387,1729.542603 
	C1811.485962,1725.525024 1743.227417,1709.921387 1677.708862,1682.805176 
	C1613.739868,1656.330078 1555.601074,1620.430542 1503.389404,1574.959961 
	C1441.882202,1521.393677 1392.052490,1458.645264 1354.608276,1386.093750 
	C1323.183105,1325.204712 1302.196533,1261.007446 1291.472900,1193.291626 
	C1284.458008,1148.994385 1282.019043,1104.470947 1284.475708,1059.850220 
	C1289.369873,970.959900 1311.464111,886.383240 1351.867554,806.878540 
	C1380.738892,750.066345 1417.239868,698.653381 1461.518066,652.686523 
	C1514.322266,597.868469 1574.774292,553.674438 1643.218384,520.519958 
	C1702.390137,491.857147 1764.604858,473.087433 1829.735962,463.602814 
	C1873.471069,457.233948 1917.404419,455.818268 1961.307617,458.490601 
	C2033.663574,462.894897 2103.426758,479.344513 2170.173340,508.016418 
	C2251.821533,543.089539 2323.367188,592.759155 2384.152832,657.512573 
	C2459.312500,737.578613 2510.593018,830.994263 2537.804688,937.458557 
	C2546.140869,970.074341 2551.407471,1003.208252 2554.507568,1036.772095 
	C2557.672607,1071.039795 2557.368652,1105.261841 2555.755615,1139.538086 
	C2555.568604,1143.513672 2554.825195,1147.463379 2554.289062,1152.341431 
M1691.850586,822.256836 
	C1694.781494,821.837402 1697.773071,821.663086 1700.633057,820.956665 
	C1713.841797,817.693970 1727.010376,814.268921 1740.200195,810.929138 
	C1757.170776,806.632019 1774.147827,802.360657 1790.968628,798.116943 
	C1793.381470,801.033508 1795.315430,803.295776 1797.168579,805.622437 
	C1835.681396,853.972107 1874.165283,902.344788 1912.743530,950.642151 
	C1914.859253,953.290955 1917.745117,955.324463 1921.536621,957.352295 
	C1963.331299,904.018738 2005.126099,850.685181 2046.827515,797.470642 
	C2049.966797,798.141785 2052.242188,798.545654 2054.474365,799.117798 
	C2090.508057,808.354309 2126.528076,817.645325 2162.581299,826.805603 
	C2165.673096,827.591187 2168.977539,827.539490 2171.703857,828.528870 
	C2172.127441,828.661377 2172.551270,828.793945 2172.974854,828.926453 
	C2172.635498,828.626953 2172.296143,828.327393 2171.988037,826.639771 
	C2170.779297,825.057251 2169.613525,823.439514 2168.355225,821.897400 
	C2117.097900,759.072327 2065.856201,696.234497 2014.546143,633.452454 
	C2005.103149,621.898193 1995.378784,610.573669 1984.897827,598.436890 
	C1982.722656,600.835388 1980.409668,603.124146 1978.397339,605.652283 
	C1971.480957,614.341003 1964.669678,623.113525 1956.757690,630.433472 
	C1948.460571,610.665161 1940.231323,590.867981 1931.834595,571.142090 
	C1928.236938,562.690308 1924.290649,554.386963 1919.875488,544.879578 
	C1917.564331,546.968018 1914.942505,548.801270 1912.987061,551.181885 
	C1841.184692,638.590027 1769.450562,726.054016 1697.667114,813.477600 
	C1695.398193,816.240967 1692.710449,818.660583 1691.134155,821.881226 
	C1691.200439,822.151794 1691.266846,822.422363 1691.333130,822.692932 
	C1691.483398,822.608826 1691.633789,822.524719 1691.784058,822.440552 
	C1691.249756,822.048035 1690.715454,821.655518 1691.850586,822.256836 
M2036.183228,535.087524 
	C2035.325073,534.976868 2034.466797,534.866211 2033.608643,534.755554 
	C2033.575562,534.960449 2033.542480,535.165344 2033.509399,535.370300 
	C2034.375977,535.544434 2035.242554,535.718567 2036.486816,537.240662 
	C2069.664307,553.952026 2100.146240,574.777832 2129.021973,598.027222 
	C2186.900146,644.627441 2238.050781,697.926331 2285.181152,755.205139 
	C2292.567383,764.181885 2299.667969,773.393555 2307.431396,783.164612 
	C2283.479492,800.674866 2260.141357,817.736328 2236.559082,834.976135 
	C2239.218262,839.773438 2241.588379,844.049072 2244.426514,849.169434 
	C2137.120361,918.933105 2030.199829,988.446045 1923.091919,1058.080811 
	C1815.592163,988.162476 1708.481567,918.497253 1601.123047,848.670776 
	C1604.058716,843.613220 1606.353271,839.660278 1609.026978,835.054138 
	C1585.018555,817.717163 1561.352783,800.627686 1537.448975,783.366272 
	C1539.324829,780.760620 1540.609985,778.834229 1542.034546,777.017090 
	C1580.763428,727.615417 1622.762451,681.184021 1668.877197,638.573486 
	C1711.095459,599.563416 1755.710205,563.755371 1807.444702,537.774109 
	C1808.578491,537.204773 1809.407593,536.028442 1811.219971,534.361511 
	C1767.631836,540.828796 1727.966064,555.067261 1690.166748,574.522522 
	C1606.912598,617.373169 1536.687744,676.390991 1476.687012,747.933044 
	C1474.183228,750.918457 1471.670044,753.895752 1469.016846,757.048279 
	C1464.216553,753.904053 1460.119873,751.220642 1455.403931,748.131653 
	C1440.026245,771.976562 1424.988525,795.294495 1409.774902,818.884949 
	C1412.832275,820.746765 1414.836060,821.911682 1416.781616,823.166565 
	C1418.928467,824.551331 1421.021973,826.018799 1423.233032,827.513977 
	C1422.583130,829.283569 1422.236816,830.566223 1421.663818,831.738037 
	C1385.639648,905.385315 1362.527466,982.825073 1353.233887,1064.338745 
	C1348.033203,1109.952881 1348.141113,1155.454834 1356.637939,1200.689819 
	C1358.605713,1211.165649 1360.236206,1221.899292 1365.091431,1232.044678 
	C1366.758789,1214.501099 1367.778687,1197.524658 1370.134888,1180.735962 
	C1372.490967,1163.948486 1375.579468,1147.209351 1379.391357,1130.690063 
	C1399.354004,1044.182129 1432.700439,962.712402 1473.131592,883.959778 
	C1473.985962,882.295593 1475.375244,880.906067 1476.684326,879.163025 
	C1502.240845,893.682312 1527.351807,907.948425 1552.588501,922.286011 
	C1555.639038,918.204407 1558.197266,914.781311 1561.280151,910.656372 
	C1660.487183,972.822083 1759.401367,1034.804321 1859.379395,1097.453125 
	C1855.284424,1100.274292 1852.384888,1102.373169 1849.387939,1104.322021 
	C1725.664795,1184.770508 1601.908325,1265.167725 1478.253052,1345.720459 
	C1469.218140,1351.606201 1459.997681,1356.279175 1449.364014,1358.661133 
	C1436.814453,1361.472046 1424.514648,1365.397339 1412.426758,1368.750732 
	C1410.345825,1401.309570 1431.982788,1434.465454 1463.678833,1447.681641 
	C1471.560059,1438.067139 1479.876099,1428.538452 1487.473267,1418.467407 
	C1494.020874,1409.787720 1501.989014,1403.167236 1511.218140,1397.532959 
	C1532.824585,1384.342773 1554.140747,1370.676880 1575.574463,1357.203613 
	C1809.654785,1210.062256 2043.733887,1062.919189 2277.826660,915.797607 
	C2280.246582,914.276733 2282.841553,913.034546 2285.434326,911.619019 
	C2288.391357,915.551514 2290.915527,918.908325 2293.708984,922.623230 
	C2319.542480,908.018616 2344.864502,893.703247 2370.432617,879.248657 
	C2372.502197,883.120178 2373.962158,885.719299 2375.302979,888.378540 
	C2402.629150,942.568176 2426.253662,998.318420 2445.193359,1055.989014 
	C2459.338135,1099.059204 2471.121826,1142.748535 2476.586670,1187.890259 
	C2478.405273,1202.913574 2479.524170,1218.021729 2480.963379,1233.091064 
	C2484.054199,1225.849121 2486.270264,1218.324341 2487.942383,1210.680542 
	C2499.559082,1157.573730 2498.770996,1104.080566 2491.416260,1050.645142 
	C2481.032715,975.208252 2458.782471,903.254761 2425.422852,834.766296 
	C2424.310059,832.482300 2423.477539,830.061890 2422.485840,827.635498 
	C2426.826172,824.724731 2430.631348,822.172913 2434.926758,819.292236 
	C2419.671143,795.634277 2404.750732,772.496216 2389.621826,749.034851 
	C2386.891602,750.781250 2384.960693,752.002014 2383.044922,753.245789 
	C2380.933594,754.616699 2378.835449,756.008606 2376.545166,757.513855 
	C2374.023682,754.581238 2372.052979,752.358459 2370.156738,750.073914 
	C2319.060547,688.511902 2259.721191,636.408203 2191.332520,594.799561 
	C2149.842529,569.556396 2105.998047,549.686523 2058.401123,538.957397 
	C2051.061279,537.302979 2043.416382,537.003296 2036.183228,535.087524 
M2006.124878,1190.799927 
	C2110.550049,1256.290771 2214.812012,1322.044922 2319.548340,1387.034180 
	C2338.839111,1399.004150 2356.039795,1412.285645 2368.671387,1431.282593 
	C2372.657471,1437.276978 2377.692627,1442.573608 2381.968750,1447.846069 
	C2413.468994,1438.565063 2438.429932,1390.774048 2430.977051,1368.640747 
	C2418.161377,1365.044556 2404.932129,1361.740112 2391.993408,1357.540649 
	C2384.818359,1355.211914 2377.617188,1352.183472 2371.296387,1348.119385 
	C2256.682129,1274.425171 2142.200684,1200.524292 2027.686523,1126.673950 
	C2024.078613,1124.347046 2020.425415,1122.090332 2016.494019,1119.612305 
	C1995.541138,1132.058960 1974.825684,1144.364746 1952.910522,1157.383179 
	C1971.130859,1168.832886 1988.007324,1179.438232 2006.124878,1190.799927 
M2101.996582,1540.907104 
	C2109.393066,1522.633911 2114.236084,1503.777100 2115.643311,1483.693970 
	C2056.900879,1483.693970 1998.798096,1483.693970 1940.488037,1483.693970 
	C1940.488037,1505.282227 1940.488037,1526.066284 1940.488037,1547.168945 
	C1987.196411,1552.146362 2027.213989,1570.673340 2061.222900,1602.564087 
	C2078.986816,1584.572876 2091.846436,1564.548462 2101.996582,1540.907104 
M1855.000244,1483.314819 
	C1812.127563,1483.314819 1769.254883,1483.314819 1725.126343,1483.314819 
	C1729.622681,1529.983643 1747.426758,1569.002686 1778.786133,1602.676147 
	C1813.531616,1570.056030 1853.769165,1551.909790 1899.567505,1546.905273 
	C1901.366333,1533.382202 1900.839478,1490.520996 1898.788940,1483.314575 
	C1884.946411,1483.314575 1870.973267,1483.314575 1855.000244,1483.314819 
M1939.813599,1415.003418 
	C1939.813599,1424.508545 1939.813599,1434.013794 1939.813599,1443.393799 
	C1999.151001,1443.393799 2057.001465,1443.393799 2114.901611,1443.393799 
	C2111.008789,1402.270386 2087.801514,1353.862427 2060.732666,1330.442261 
	C2026.811279,1362.363037 1986.229248,1380.504761 1939.813599,1385.949097 
	C1939.813599,1395.724487 1939.813599,1404.369507 1939.813599,1415.003418 
M1755.041748,1360.020996 
	C1738.987427,1385.394897 1728.617554,1412.758789 1725.290161,1443.342285 
	C1783.850220,1443.342285 1841.658081,1443.342285 1899.981934,1443.342285 
	C1899.981934,1424.085449 1899.981934,1405.248657 1899.981934,1385.780151 
	C1853.585571,1380.432373 1813.142700,1362.024780 1778.099976,1329.390259 
	C1770.245483,1339.777832 1763.048340,1349.296265 1755.041748,1360.020996 
M1874.266113,1340.744141 
	C1882.594727,1342.598633 1890.923340,1344.453247 1899.798340,1346.429443 
	C1899.798340,1320.589111 1899.798340,1295.983765 1899.798340,1270.841797 
	C1866.544189,1274.588745 1836.884155,1285.474854 1809.166504,1304.342529 
	C1828.293701,1321.571899 1849.116211,1333.365356 1874.266113,1340.744141 
M2021.165161,1297.861328 
	C1996.358521,1283.071655 1969.730957,1273.823486 1940.469482,1270.910278 
	C1940.469482,1296.167969 1940.469482,1320.865845 1940.469482,1346.040649 
	C1975.146606,1341.287354 2004.927002,1328.048706 2030.936890,1304.355957 
	C2027.298340,1301.882080 2024.857544,1300.222412 2021.165161,1297.861328 
M1981.598022,1597.345093 
	C1968.401611,1592.130493 1954.946899,1588.022461 1940.675659,1587.076660 
	C1938.743774,1603.052979 1939.392944,1654.953125 1941.515015,1661.635986 
	C1965.082031,1660.594238 2007.863403,1646.762817 2030.461914,1628.336060 
	C2016.492065,1615.108765 2000.566040,1605.285889 1981.598022,1597.345093 
M1882.772461,1589.813354 
	C1855.060303,1596.286255 1830.630981,1608.894531 1808.854248,1628.787720 
	C1836.887573,1647.559814 1866.735474,1658.141846 1899.820557,1662.072754 
	C1899.820557,1636.647339 1899.820557,1611.927490 1899.820557,1586.640991 
	C1894.165771,1587.687378 1889.278564,1588.591675 1882.772461,1589.813354 
z"/>
<path fill="#011F3E" opacity="1.000000" stroke="none" 
	d="
M1221.275146,1542.779541 
	C1221.826660,1541.610962 1222.844727,1541.107666 1223.862915,1540.604492 
	C1223.841064,1541.735229 1223.819214,1542.866089 1223.273315,1544.358521 
	C1222.413574,1544.295044 1222.077759,1543.869995 1221.275146,1542.779541 
z"/>
<path fill="#092645" opacity="1.000000" stroke="none" 
	d="
M1284.373291,641.573486 
	C1266.202148,628.671021 1248.614868,616.181091 1231.030029,603.687561 
	C1229.406494,602.534119 1227.747437,601.422913 1226.193115,600.181702 
	C1220.216064,595.408875 1219.060547,589.924622 1222.878662,584.734619 
	C1226.432129,579.904358 1231.875366,579.041748 1237.763550,583.239929 
	C1261.002319,599.808960 1284.060669,616.631042 1307.249756,633.270386 
	C1311.162476,636.078064 1313.064941,639.543884 1312.242554,644.313171 
	C1311.031494,651.334351 1304.062744,654.809204 1297.986816,651.140259 
	C1293.453979,648.402954 1289.287476,645.058777 1284.373291,641.573486 
z"/>
<path fill="#0A2746" opacity="1.000000" stroke="none" 
	d="
M2614.316406,573.499756 
	C2620.488770,579.875488 2620.946777,583.367126 2615.459473,587.848389 
	C2606.694336,595.006836 2597.600586,601.787781 2588.375244,608.347717 
	C2584.081787,611.400574 2579.256348,609.765198 2575.437744,604.906921 
	C2572.043945,600.589294 2571.850586,596.004883 2575.999268,592.470947 
	C2584.362305,585.347107 2593.087158,578.639709 2601.795898,571.933472 
	C2605.939697,568.742554 2609.967041,570.437927 2614.316406,573.499756 
z"/>
<path fill="#FDC404" opacity="1.000000" stroke="none" 
	d="
M2035.912476,536.077148 
	C2043.416382,537.003296 2051.061279,537.302979 2058.401123,538.957397 
	C2105.998047,549.686523 2149.842529,569.556396 2191.332520,594.799561 
	C2259.721191,636.408203 2319.060547,688.511902 2370.156738,750.073914 
	C2372.052979,752.358459 2374.023682,754.581238 2376.545166,757.513855 
	C2378.835449,756.008606 2380.933594,754.616699 2383.044922,753.245789 
	C2384.960693,752.002014 2386.891602,750.781250 2389.621826,749.034851 
	C2404.750732,772.496216 2419.671143,795.634277 2434.926758,819.292236 
	C2430.631348,822.172913 2426.826172,824.724731 2422.485840,827.635498 
	C2423.477539,830.061890 2424.310059,832.482300 2425.422852,834.766296 
	C2458.782471,903.254761 2481.032715,975.208252 2491.416260,1050.645142 
	C2498.770996,1104.080566 2499.559082,1157.573730 2487.942383,1210.680542 
	C2486.270264,1218.324341 2484.054199,1225.849121 2480.963379,1233.091064 
	C2479.524170,1218.021729 2478.405273,1202.913574 2476.586670,1187.890259 
	C2471.121826,1142.748535 2459.338135,1099.059204 2445.193359,1055.989014 
	C2426.253662,998.318420 2402.629150,942.568176 2375.302979,888.378540 
	C2373.962158,885.719299 2372.502197,883.120178 2370.432617,879.248657 
	C2344.864502,893.703247 2319.542480,908.018616 2293.708984,922.623230 
	C2290.915527,918.908325 2288.391357,915.551514 2285.434326,911.619019 
	C2282.841553,913.034546 2280.246582,914.276733 2277.826660,915.797607 
	C2043.733887,1062.919189 1809.654785,1210.062256 1575.574463,1357.203613 
	C1554.140747,1370.676880 1532.824585,1384.342773 1511.218140,1397.532959 
	C1501.989014,1403.167236 1494.020874,1409.787720 1487.473267,1418.467407 
	C1479.876099,1428.538452 1471.560059,1438.067139 1463.678833,1447.681641 
	C1431.982788,1434.465454 1410.345825,1401.309570 1412.426758,1368.750732 
	C1424.514648,1365.397339 1436.814453,1361.472046 1449.364014,1358.661133 
	C1459.997681,1356.279175 1469.218140,1351.606201 1478.253052,1345.720459 
	C1601.908325,1265.167725 1725.664795,1184.770508 1849.387939,1104.322021 
	C1852.384888,1102.373169 1855.284424,1100.274292 1859.379395,1097.453125 
	C1759.401367,1034.804321 1660.487183,972.822083 1561.280151,910.656372 
	C1558.197266,914.781311 1555.639038,918.204407 1552.588501,922.286011 
	C1527.351807,907.948425 1502.240845,893.682312 1476.684326,879.163025 
	C1475.375244,880.906067 1473.985962,882.295593 1473.131592,883.959778 
	C1432.700439,962.712402 1399.354004,1044.182129 1379.391357,1130.690063 
	C1375.579468,1147.209351 1372.490967,1163.948486 1370.134888,1180.735962 
	C1367.778687,1197.524658 1366.758789,1214.501099 1365.091431,1232.044678 
	C1360.236206,1221.899292 1358.605713,1211.165649 1356.637939,1200.689819 
	C1348.141113,1155.454834 1348.033203,1109.952881 1353.233887,1064.338745 
	C1362.527466,982.825073 1385.639648,905.385315 1421.663818,831.738037 
	C1422.236816,830.566223 1422.583130,829.283569 1423.233032,827.513977 
	C1421.021973,826.018799 1418.928467,824.551331 1416.781616,823.166565 
	C1414.836060,821.911682 1412.832275,820.746765 1409.774902,818.884949 
	C1424.988525,795.294495 1440.026245,771.976562 1455.403931,748.131653 
	C1460.119873,751.220642 1464.216553,753.904053 1469.016846,757.048279 
	C1471.670044,753.895752 1474.183228,750.918457 1476.687012,747.933044 
	C1536.687744,676.390991 1606.912598,617.373169 1690.166748,574.522522 
	C1727.966064,555.067261 1767.631836,540.828796 1811.219971,534.361511 
	C1809.407593,536.028442 1808.578491,537.204773 1807.444702,537.774109 
	C1755.710205,563.755371 1711.095459,599.563416 1668.877197,638.573486 
	C1622.762451,681.184021 1580.763428,727.615417 1542.034546,777.017090 
	C1540.609985,778.834229 1539.324829,780.760620 1537.448975,783.366272 
	C1561.352783,800.627686 1585.018555,817.717163 1609.026978,835.054138 
	C1606.353271,839.660278 1604.058716,843.613220 1601.123047,848.670776 
	C1708.481567,918.497253 1815.592163,988.162476 1923.091919,1058.080811 
	C2030.199829,988.446045 2137.120361,918.933105 2244.426514,849.169434 
	C2241.588379,844.049072 2239.218262,839.773438 2236.559082,834.976135 
	C2260.141357,817.736328 2283.479492,800.674866 2307.431396,783.164612 
	C2299.667969,773.393555 2292.567383,764.181885 2285.181152,755.205139 
	C2238.050781,697.926331 2186.900146,644.627441 2129.021973,598.027222 
	C2100.146240,574.777832 2069.664307,553.952026 2036.250610,536.614746 
	C2036.014404,535.988831 2035.912476,536.077148 2035.912476,536.077148 
z"/>
<path fill="#FEC504" opacity="1.000000" stroke="none" 
	d="
M1985.784424,599.143005 
	C1995.378784,610.573669 2005.103149,621.898193 2014.546143,633.452454 
	C2065.856201,696.234497 2117.097900,759.072327 2168.355225,821.897400 
	C2169.613525,823.439514 2170.779297,825.057251 2172.027344,827.293701 
	C2172.066895,827.947632 2172.183350,827.876770 2172.183350,827.876770 
	C2168.977539,827.539490 2165.673096,827.591187 2162.581299,826.805603 
	C2126.528076,817.645325 2090.508057,808.354309 2054.474365,799.117798 
	C2052.242188,798.545654 2049.966797,798.141785 2046.827515,797.470642 
	C2005.126099,850.685181 1963.331299,904.018738 1920.820557,956.589539 
	C1920.099243,822.545837 1920.091064,689.264954 1920.106323,555.984009 
	C1920.106689,552.661377 1920.364868,549.338745 1920.502808,546.016113 
	C1924.290649,554.386963 1928.236938,562.690308 1931.834595,571.142090 
	C1940.231323,590.867981 1948.460571,610.665161 1957.337036,631.704712 
	C1966.347656,652.589661 1974.779053,672.203247 1983.210449,691.816833 
	C1983.928955,691.645630 1984.647461,691.474426 1985.365967,691.303223 
	C1985.365967,688.139282 1985.352539,684.975281 1985.368164,681.811401 
	C1985.504028,654.255249 1985.645020,626.699158 1985.784424,599.143005 
z"/>
<path fill="#FEFEFE" opacity="1.000000" stroke="none" 
	d="
M1920.189209,545.447876 
	C1920.364868,549.338745 1920.106689,552.661377 1920.106323,555.984009 
	C1920.091064,689.264954 1920.099243,822.545837 1920.188477,956.735596 
	C1917.745117,955.324463 1914.859253,953.290955 1912.743530,950.642151 
	C1874.165283,902.344788 1835.681396,853.972107 1797.168579,805.622437 
	C1795.315430,803.295776 1793.381470,801.033508 1790.968628,798.116943 
	C1774.147827,802.360657 1757.170776,806.632019 1740.200195,810.929138 
	C1727.010376,814.268921 1713.841797,817.693970 1700.633057,820.956665 
	C1697.773071,821.663086 1694.781494,821.837402 1691.136353,821.799011 
	C1690.422119,821.341187 1690.218018,821.240479 1690.218018,821.240479 
	C1692.710449,818.660583 1695.398193,816.240967 1697.667114,813.477600 
	C1769.450562,726.054016 1841.184692,638.590027 1912.987061,551.181885 
	C1914.942505,548.801270 1917.564331,546.968018 1920.189209,545.447876 
z"/>
<path fill="#FCC404" opacity="1.000000" stroke="none" 
	d="
M2005.504395,1190.421753 
	C1988.007324,1179.438232 1971.130859,1168.832886 1952.910522,1157.383179 
	C1974.825684,1144.364746 1995.541138,1132.058960 2016.494019,1119.612305 
	C2020.425415,1122.090332 2024.078613,1124.347046 2027.686523,1126.673950 
	C2142.200684,1200.524292 2256.682129,1274.425171 2371.296387,1348.119385 
	C2377.617188,1352.183472 2384.818359,1355.211914 2391.993408,1357.540649 
	C2404.932129,1361.740112 2418.161377,1365.044556 2430.977051,1368.640747 
	C2438.429932,1390.774048 2413.468994,1438.565063 2381.968750,1447.846069 
	C2377.692627,1442.573608 2372.657471,1437.276978 2368.671387,1431.282593 
	C2356.039795,1412.285645 2338.839111,1399.004150 2319.548340,1387.034180 
	C2214.812012,1322.044922 2110.550049,1256.290771 2005.504395,1190.421753 
z"/>
<path fill="#FDC404" opacity="1.000000" stroke="none" 
	d="
M2101.732178,1541.625854 
	C2091.846436,1564.548462 2078.986816,1584.572876 2061.222900,1602.564087 
	C2027.213989,1570.673340 1987.196411,1552.146362 1940.488037,1547.168945 
	C1940.488037,1526.066284 1940.488037,1505.282227 1940.488037,1483.693970 
	C1998.798096,1483.693970 2056.900879,1483.693970 2115.643311,1483.693970 
	C2114.236084,1503.777100 2109.393066,1522.633911 2101.732178,1541.625854 
z"/>
<path fill="#FEC503" opacity="1.000000" stroke="none" 
	d="
M1856.000244,1483.314697 
	C1870.973267,1483.314575 1884.946411,1483.314575 1898.788940,1483.314575 
	C1900.839478,1490.520996 1901.366333,1533.382202 1899.567505,1546.905273 
	C1853.769165,1551.909790 1813.531616,1570.056030 1778.786133,1602.676147 
	C1747.426758,1569.002686 1729.622681,1529.983643 1725.126343,1483.314819 
	C1769.254883,1483.314819 1812.127563,1483.314819 1856.000244,1483.314697 
z"/>
<path fill="#FCFDFD" opacity="1.000000" stroke="none" 
	d="
M1939.813599,1414.009033 
	C1939.813599,1404.369507 1939.813599,1395.724487 1939.813599,1385.949097 
	C1986.229248,1380.504761 2026.811279,1362.363037 2060.732666,1330.442261 
	C2087.801514,1353.862427 2111.008789,1402.270386 2114.901611,1443.393799 
	C2057.001465,1443.393799 1999.151001,1443.393799 1939.813599,1443.393799 
	C1939.813599,1434.013794 1939.813599,1424.508545 1939.813599,1414.009033 
z"/>
<path fill="#FCFDFD" opacity="1.000000" stroke="none" 
	d="
M1755.446533,1359.417847 
	C1763.048340,1349.296265 1770.245483,1339.777832 1778.099976,1329.390259 
	C1813.142700,1362.024780 1853.585571,1380.432373 1899.981934,1385.780151 
	C1899.981934,1405.248657 1899.981934,1424.085449 1899.981934,1443.342285 
	C1841.658081,1443.342285 1783.850220,1443.342285 1725.290161,1443.342285 
	C1728.617554,1412.758789 1738.987427,1385.394897 1755.446533,1359.417847 
z"/>
<path fill="#FBFBFC" opacity="1.000000" stroke="none" 
	d="
M1873.496338,1340.506348 
	C1849.116211,1333.365356 1828.293701,1321.571899 1809.166504,1304.342529 
	C1836.884155,1285.474854 1866.544189,1274.588745 1899.798340,1270.841797 
	C1899.798340,1295.983765 1899.798340,1320.589111 1899.798340,1346.429443 
	C1890.923340,1344.453247 1882.594727,1342.598633 1873.496338,1340.506348 
z"/>
<path fill="#FBFBFC" opacity="1.000000" stroke="none" 
	d="
M2021.791016,1298.212158 
	C2024.857544,1300.222412 2027.298340,1301.882080 2030.936890,1304.355957 
	C2004.927002,1328.048706 1975.146606,1341.287354 1940.469482,1346.040649 
	C1940.469482,1320.865845 1940.469482,1296.167969 1940.469482,1270.910278 
	C1969.730957,1273.823486 1996.358521,1283.071655 2021.791016,1298.212158 
z"/>
<path fill="#FBC304" opacity="1.000000" stroke="none" 
	d="
M1982.313599,1597.620972 
	C2000.566040,1605.285889 2016.492065,1615.108765 2030.461914,1628.336060 
	C2007.863403,1646.762817 1965.082031,1660.594238 1941.515015,1661.635986 
	C1939.392944,1654.953125 1938.743774,1603.052979 1940.675659,1587.076660 
	C1954.946899,1588.022461 1968.401611,1592.130493 1982.313599,1597.620972 
z"/>
<path fill="#FCC404" opacity="1.000000" stroke="none" 
	d="
M1883.581909,1589.654785 
	C1889.278564,1588.591675 1894.165771,1587.687378 1899.820557,1586.640991 
	C1899.820557,1611.927490 1899.820557,1636.647339 1899.820557,1662.072754 
	C1866.735474,1658.141846 1836.887573,1647.559814 1808.854248,1628.787720 
	C1830.630981,1608.894531 1855.060303,1596.286255 1883.581909,1589.654785 
z"/>
<path fill="#FDF8EA" opacity="1.000000" stroke="none" 
	d="
M1985.341064,598.789917 
	C1985.645020,626.699158 1985.504028,654.255249 1985.368164,681.811401 
	C1985.352539,684.975281 1985.365967,688.139282 1985.365967,691.303223 
	C1984.647461,691.474426 1983.928955,691.645630 1983.210449,691.816833 
	C1974.779053,672.203247 1966.347656,652.589661 1957.867432,632.415039 
	C1964.669678,623.113525 1971.480957,614.341003 1978.397339,605.652283 
	C1980.409668,603.124146 1982.722656,600.835388 1985.341064,598.789917 
z"/>
<path fill="#FDC404" opacity="1.000000" stroke="none" 
	d="
M2036.061768,535.940796 
	C2035.242554,535.718567 2034.375977,535.544434 2033.509399,535.370300 
	C2033.542480,535.165344 2033.575562,534.960449 2033.608643,534.755554 
	C2034.466797,534.866211 2035.325073,534.976868 2036.047852,535.582336 
	C2035.912476,536.077148 2036.014404,535.988831 2036.061768,535.940796 
z"/>
<path fill="#FEFEFE" opacity="1.000000" stroke="none" 
	d="
M1690.301636,821.302124 
	C1690.715454,821.655518 1691.249756,822.048035 1691.784058,822.440552 
	C1691.633789,822.524719 1691.483398,822.608826 1691.333252,822.692932 
	C1691.266846,822.422363 1691.200439,822.151794 1690.676025,821.560852 
	C1690.218018,821.240479 1690.422119,821.341187 1690.301636,821.302124 
z"/>
<path fill="#FEC504" opacity="1.000000" stroke="none" 
	d="
M2172.011719,827.987793 
	C2172.296143,828.327393 2172.635498,828.626953 2172.974854,828.926453 
	C2172.551270,828.793945 2172.127441,828.661377 2171.943604,828.202820 
	C2172.183350,827.876770 2172.066895,827.947632 2172.011719,827.987793 
z"/>
</svg>