<svg version="1.1" id="Layer_1" xmlns="http://www.w3.org/2000/svg" xmlns:xlink="http://www.w3.org/1999/xlink" x="0px" y="0px"
	 width="100%" viewBox="0 0 3840 2160" enable-background="new 0 0 3840 2160" xml:space="preserve">
<path fill="#171C1C" opacity="1.000000" stroke="none" 
	d="
M2464.217285,798.161255 
	C2413.708740,814.484436 2363.109863,827.238098 2311.577637,836.065979 
	C2277.879883,841.838623 2244.000977,846.559082 2210.321045,852.426819 
	C2205.237061,853.312561 2200.118164,857.164978 2196.165771,860.871948 
	C2167.445557,887.809753 2148.590088,920.508423 2140.199219,959.085449 
	C2135.998291,978.400513 2135.611084,997.988159 2135.802002,1017.665649 
	C2136.073486,1045.655884 2136.972168,1073.707520 2135.538330,1101.626831 
	C2134.213135,1127.432007 2130.825195,1153.191162 2127.174072,1178.803467 
	C2121.240479,1220.427734 2108.162598,1260.398193 2096.285400,1300.525146 
	C2084.493652,1340.363403 2064.886230,1376.658813 2040.823975,1410.640503 
	C2022.411011,1436.643921 2000.979858,1459.893433 1977.244751,1480.796143 
	C1941.751587,1512.053833 1901.525513,1536.054199 1857.574463,1553.718018 
	C1824.967651,1566.822510 1791.068970,1574.969482 1756.356201,1579.644287 
	C1729.221313,1583.298584 1701.781738,1583.592896 1674.595337,1581.547974 
	C1623.788330,1577.726440 1574.993774,1565.406006 1528.714111,1543.450562 
	C1497.548584,1528.665405 1468.739990,1510.403076 1441.942749,1488.774658 
	C1403.151733,1457.465454 1371.783447,1419.786133 1346.965210,1376.769653 
	C1326.705933,1341.655151 1312.569458,1303.987183 1304.093262,1264.289429 
	C1299.368530,1242.161011 1295.841919,1219.880737 1295.746582,1197.142944 
	C1295.713257,1189.197998 1293.983643,1181.232788 1294.250610,1173.318115 
	C1296.115356,1118.020142 1305.836304,1064.411865 1328.219238,1013.370300 
	C1343.714966,978.034241 1363.651978,945.520813 1388.062256,915.796814 
	C1404.556519,895.712097 1423.459473,877.989990 1443.350586,861.170898 
	C1459.426392,847.577637 1476.068848,835.010254 1494.094360,824.208374 
	C1495.107544,823.601257 1495.903931,822.632446 1497.424561,821.276184 
	C1478.972290,816.127563 1461.487183,811.145203 1443.944702,806.374023 
	C1395.555176,793.213318 1349.067993,775.200623 1304.956299,751.327515 
	C1278.553101,737.038269 1253.240356,720.815308 1231.749268,699.737671 
	C1212.540649,680.898804 1197.210938,659.150146 1191.927856,631.881653 
	C1186.133057,601.971558 1192.684570,574.446411 1208.391357,548.765747 
	C1222.021484,526.480347 1241.031616,509.471130 1261.889404,494.287231 
	C1293.087280,471.575958 1327.559937,454.943146 1363.241333,440.844910 
	C1419.694702,418.539307 1477.845093,401.711182 1537.352051,389.815460 
	C1572.519165,382.785431 1607.793701,376.161041 1643.209106,370.548706 
	C1668.105347,366.603424 1693.287476,364.326660 1718.401855,361.934174 
	C1744.177490,359.478729 1770.019409,357.699951 1795.845337,355.802582 
	C1807.768677,354.926575 1819.715820,354.205719 1831.664917,353.880127 
	C1861.932373,353.055298 1892.207397,352.502930 1922.478882,351.820801 
	C1930.425903,351.641754 1930.558350,351.639496 1932.419434,343.937622 
	C1940.306519,311.294830 1956.812256,283.588715 1981.081909,260.657166 
	C2000.899780,241.931992 2024.164307,228.292953 2049.360596,218.122833 
	C2071.008301,209.384949 2093.422607,203.229294 2116.569092,199.710205 
	C2122.757568,198.769348 2128.979004,196.951111 2134.734131,194.483658 
	C2146.440186,189.464935 2149.926270,181.964386 2146.943604,169.561707 
	C2145.545410,163.747986 2143.527100,158.086182 2141.910645,152.321716 
	C2137.521484,136.669479 2132.319824,121.176224 2129.110840,105.282677 
	C2126.326660,91.491905 2126.859619,77.461304 2134.734619,64.691116 
	C2140.519287,55.310238 2148.815918,48.791561 2158.044922,43.363834 
	C2174.630371,33.609432 2192.612549,27.825626 2211.739502,25.831881 
	C2219.979736,24.972952 2228.273438,24.530945 2236.554688,24.211271 
	C2239.365723,24.102757 2242.213623,24.951014 2246.380127,25.555929 
	C2244.432129,28.639170 2243.548340,30.697727 2242.099854,32.217731 
	C2235.433350,39.212681 2228.887695,46.362629 2221.763184,52.870564 
	C2214.539307,59.469162 2210.616455,67.589325 2208.181885,76.788033 
	C2202.799316,97.126282 2203.331299,117.525833 2206.823730,138.081345 
	C2210.660156,160.660629 2214.706543,183.230759 2217.533691,205.945267 
	C2219.308838,220.209000 2216.455566,234.425385 2212.678467,248.305023 
	C2211.916504,251.105499 2211.182861,253.913696 2210.020752,258.277863 
	C2212.639160,256.971161 2214.277588,256.666809 2215.067139,255.681961 
	C2225.150879,243.102798 2232.793945,229.117310 2238.413330,214.036163 
	C2243.736572,199.749161 2243.599854,184.726929 2244.183838,169.796295 
	C2244.348633,165.581787 2245.108154,161.390533 2245.593994,157.198639 
	C2250.801514,156.719025 2252.161133,160.022598 2254.022705,162.620270 
	C2264.734131,177.569183 2270.311035,194.652328 2273.683350,212.402420 
	C2277.099365,230.381775 2278.623291,248.621185 2277.839355,266.970306 
	C2277.636475,271.720764 2277.131592,276.458374 2276.645508,282.759399 
	C2286.645264,275.646545 2295.463623,269.909088 2303.659668,263.389374 
	C2311.449707,257.192444 2319.210449,250.739746 2325.867188,243.388443 
	C2335.472412,232.781464 2339.111328,219.864685 2336.896240,205.495239 
	C2334.023926,186.863068 2331.234863,168.218124 2329.995850,148.485443 
	C2332.686279,151.424622 2335.554688,154.221680 2338.038330,157.326431 
	C2352.776855,175.750671 2369.027100,193.067963 2380.378174,214.002335 
	C2390.026367,231.795517 2396.521973,250.557556 2395.812988,271.118500 
	C2395.121826,291.159058 2387.252197,307.868652 2371.134766,320.137451 
	C2355.792480,331.816376 2340.058105,342.981293 2324.749268,354.702698 
	C2316.265137,361.198730 2308.347900,368.401703 2308.132080,381.608643 
	C2313.969971,383.038605 2319.616943,384.670776 2325.363525,385.791351 
	C2393.457275,399.069885 2460.063965,417.436951 2524.295166,443.907257 
	C2559.496582,458.414185 2593.355957,475.473999 2623.961670,498.355652 
	C2642.734619,512.391113 2659.701904,528.369690 2672.073242,548.532715 
	C2696.224854,587.895874 2696.548096,627.810120 2673.267578,667.555481 
	C2655.311035,698.211487 2628.353027,719.855896 2598.700684,738.184021 
	C2556.842773,764.056519 2511.677002,782.773438 2464.217285,798.161255 
M2005.080688,1428.330566 
	C2004.462769,1428.668091 2004.061157,1429.176392 2002.506958,1430.077759 
	C2001.906128,1430.360229 2001.241089,1430.554443 2000.713379,1430.937744 
	C1975.679077,1449.120972 1948.499634,1463.075928 1918.495605,1470.791504 
	C1902.767456,1474.836182 1886.695435,1477.734985 1870.639160,1480.266357 
	C1847.463257,1483.920166 1824.152954,1483.502686 1801.090454,1479.235352 
	C1765.768677,1472.699707 1733.901367,1458.086304 1705.312256,1436.406738 
	C1700.715576,1432.920898 1696.548706,1431.861572 1690.634399,1433.186890 
	C1677.364624,1436.160889 1663.839478,1438.006470 1650.403198,1440.219971 
	C1643.763428,1441.313843 1637.090332,1442.205078 1628.819336,1443.426025 
	C1632.309937,1447.252930 1634.437012,1449.734741 1636.719238,1452.064697 
	C1672.854248,1488.955322 1716.645386,1512.506958 1766.125977,1525.997803 
	C1789.591187,1532.395508 1813.416870,1536.713989 1837.749268,1538.457642 
	C1844.166016,1538.917725 1850.046509,1539.468994 1856.204468,1536.932983 
	C1885.262573,1524.965454 1912.782959,1510.299927 1938.326294,1491.904053 
	C1960.861206,1475.675049 1981.186157,1457.024170 2000.088623,1436.767090 
	C2001.822510,1434.908936 2002.836914,1432.379272 2005.100708,1429.735474 
	C2005.383057,1429.142578 2005.665283,1428.549805 2006.547729,1427.860474 
	C2006.659424,1427.689209 2006.771118,1427.517944 2006.882690,1427.346558 
	C2006.599854,1427.579468 2006.317017,1427.812378 2005.080688,1428.330566 
M1353.798340,1351.453247 
	C1353.615479,1351.358521 1353.432495,1351.263794 1353.249634,1351.169067 
	C1353.517090,1351.431641 1353.784668,1351.694214 1353.955933,1353.449463 
	C1359.930420,1364.541748 1365.346558,1375.980957 1371.981689,1386.663086 
	C1393.806030,1421.798828 1421.359741,1452.055176 1453.535400,1477.858643 
	C1468.818970,1490.115356 1485.532471,1500.607300 1501.790161,1511.615234 
	C1505.111328,1513.863892 1508.625244,1516.741699 1514.170532,1516.157959 
	C1513.417114,1508.800049 1512.854004,1501.891357 1511.979370,1495.022461 
	C1509.307373,1474.039795 1502.592529,1454.222534 1494.398438,1434.841919 
	C1492.865112,1431.215454 1490.230469,1429.349365 1486.459839,1427.983276 
	C1467.701172,1421.187622 1448.708008,1414.854858 1430.491211,1406.791748 
	C1405.404175,1395.688110 1381.835938,1381.913452 1363.477173,1360.740845 
	C1360.681885,1357.516968 1357.154175,1354.928223 1353.798340,1351.453247 
M2337.719727,507.275574 
	C2376.127686,515.694275 2413.959473,526.125671 2450.683350,540.267456 
	C2471.527344,548.294189 2491.783936,557.619568 2510.582520,569.828796 
	C2522.950439,577.861450 2534.435547,586.945374 2543.195801,598.985046 
	C2556.793945,617.674316 2557.493652,637.880188 2543.654785,656.379272 
	C2536.970947,665.313782 2528.437500,673.148560 2519.711426,680.208191 
	C2504.866699,692.217896 2487.655273,700.449524 2470.145508,707.883972 
	C2412.190674,732.491394 2351.337402,746.759521 2289.663086,757.917786 
	C2243.102783,766.341614 2196.208008,772.373047 2149.054199,776.387573 
	C2146.601562,776.596375 2143.403809,777.405640 2142.020264,779.119690 
	C2137.404297,784.838318 2133.296143,791.007080 2129.446777,799.295959 
	C2133.505615,798.184143 2135.695068,797.617676 2137.864746,796.984741 
	C2153.678467,792.371643 2169.834717,790.864380 2186.261719,791.267517 
	C2220.489258,792.107422 2252.498535,801.735107 2283.376953,815.713257 
	C2286.968506,817.339172 2290.028564,817.757324 2293.816650,816.947205 
	C2314.641846,812.493652 2335.611816,808.684387 2356.361328,803.911987 
	C2417.446777,789.862427 2477.397461,772.105652 2534.594482,746.136169 
	C2569.314209,730.372314 2602.032227,711.205933 2629.946533,684.758301 
	C2641.635254,673.683777 2651.597900,661.253357 2658.774902,646.724304 
	C2671.318359,621.332642 2670.966553,596.061890 2658.128662,570.901794 
	C2651.080322,557.088074 2641.378906,545.296692 2630.263428,534.602051 
	C2608.435303,513.600159 2583.066406,497.737000 2556.269775,484.039215 
	C2498.404297,454.460083 2436.831299,435.320251 2373.953369,420.038849 
	C2282.451416,397.800873 2189.443848,385.292542 2095.656494,378.449371 
	C2035.163330,374.035522 1974.561890,371.875214 1913.873291,372.970062 
	C1858.218140,373.974121 1802.663818,376.480774 1747.204224,381.496399 
	C1680.804443,387.501434 1614.877563,396.593018 1549.589600,410.108887 
	C1488.879272,422.677185 1429.152954,438.739777 1371.565918,462.014252 
	C1334.716797,476.907288 1299.213501,494.373627 1267.575684,518.823608 
	C1251.929688,530.914917 1237.762329,544.499512 1227.139160,561.362366 
	C1207.022461,593.294678 1207.102051,625.315674 1227.146973,657.255371 
	C1235.912354,671.222168 1247.172363,683.002625 1259.720093,693.592041 
	C1282.283447,712.633972 1307.615356,727.251831 1334.070557,740.086609 
	C1395.554810,769.915710 1460.672852,788.715942 1527.067261,803.592590 
	C1530.461792,804.353271 1534.508423,804.336121 1537.766235,803.239563 
	C1564.565796,794.219116 1591.279175,784.938965 1617.954102,775.553406 
	C1626.977539,772.378540 1635.815063,768.674988 1646.544312,764.511963 
	C1642.134644,763.430908 1639.645996,762.605103 1637.090942,762.226379 
	C1592.606323,755.632202 1548.495239,747.127991 1504.977539,735.767944 
	C1466.280884,725.666443 1428.163086,713.753052 1392.340332,695.619629 
	C1373.233154,685.947571 1355.246216,674.455017 1340.969238,658.138367 
	C1321.867432,636.307617 1321.623901,612.899719 1339.945557,590.306274 
	C1348.444946,579.825378 1358.617676,571.015686 1370.330200,564.629761 
	C1387.827148,555.090088 1405.466797,545.465820 1423.937988,538.121460 
	C1489.933228,511.880768 1559.232178,498.580414 1629.132202,488.156952 
	C1675.602783,481.227234 1722.332275,476.599121 1769.218384,473.380035 
	C1825.764160,469.497833 1882.352295,467.738251 1939.027832,467.916656 
	C1991.369019,468.081390 2043.656372,469.630432 2095.816650,473.890808 
	C2132.993896,476.927429 2170.257080,479.774231 2207.172852,484.922821 
	C2250.332520,490.942291 2293.156006,499.370575 2337.719727,507.275574 
M2011.086426,695.932251 
	C2012.668213,668.049561 2015.074829,640.183289 2015.631348,612.280151 
	C2016.394653,574.012512 2016.492798,535.757996 2021.803101,497.748077 
	C2022.098633,495.632812 2021.384888,493.376556 2021.073853,490.583374 
	C2005.317871,490.583374 1990.181274,490.583374 1974.505859,490.583374 
	C1975.529907,496.781128 1976.673584,502.299713 1977.324097,507.875824 
	C1980.705811,536.856873 1967.797607,553.945007 1938.886108,557.848389 
	C1925.221313,559.693237 1912.743652,556.521301 1904.102539,544.915405 
	C1894.276855,531.718506 1889.112183,516.909607 1891.047241,500.135162 
	C1891.406372,497.021851 1891.403564,493.866730 1891.562744,490.828766 
	C1889.417969,490.343109 1888.475464,490.027649 1887.510620,489.926697 
	C1874.802734,488.597076 1865.411743,495.863464 1855.629883,502.196198 
	C1836.084961,514.849304 1827.289795,532.739380 1827.550171,556.020996 
	C1827.723389,571.510559 1830.077026,586.464355 1834.026978,601.301453 
	C1840.382690,625.174988 1844.909058,649.261902 1844.143311,674.167969 
	C1843.076416,708.879761 1828.834595,736.159668 1797.974731,752.721252 
	C1777.493286,763.713074 1755.760864,772.372620 1734.597534,782.096252 
	C1703.675903,796.303345 1673.551270,811.844177 1646.135864,832.309937 
	C1619.276978,852.360229 1595.991333,876.037537 1574.083618,901.209229 
	C1556.864746,920.993469 1543.547485,943.131287 1533.775146,967.464844 
	C1516.683716,1010.022949 1510.482788,1054.686157 1508.221069,1100.063843 
	C1506.809326,1128.388916 1508.517212,1156.674194 1512.397461,1184.711426 
	C1518.486450,1228.709473 1529.429810,1271.543579 1546.495728,1312.645630 
	C1560.327393,1345.957764 1577.118042,1377.696045 1597.530151,1407.522705 
	C1602.013672,1414.074097 1606.904419,1417.255249 1614.868774,1416.042236 
	C1627.344116,1414.141968 1639.898804,1412.767090 1652.383423,1410.922363 
	C1658.791260,1409.975342 1665.120117,1408.492676 1672.504150,1407.053345 
	C1670.332397,1403.613159 1669.159058,1401.277710 1667.557007,1399.287476 
	C1640.649780,1365.862061 1630.092529,1327.071777 1630.228760,1284.880371 
	C1630.263062,1274.261108 1631.073975,1263.625488 1631.939575,1253.031006 
	C1634.531738,1221.307739 1644.222656,1191.806641 1660.530029,1164.515747 
	C1680.257202,1131.501221 1706.957642,1104.535767 1735.910522,1079.811157 
	C1771.591553,1049.340698 1807.873169,1019.571533 1843.985962,989.608765 
	C1869.634766,968.328186 1894.571167,946.380249 1916.403687,921.012817 
	C1935.828735,898.442383 1952.948486,874.390930 1967.016724,848.165894 
	C1992.256104,801.115845 2005.679688,750.631592 2011.086426,695.932251 
M2143.062500,507.687683 
	C2144.023438,505.054565 2144.984619,502.421417 2146.275635,498.884491 
	C2114.899658,496.584686 2084.938965,494.388580 2054.661377,492.169281 
	C2053.564941,496.528595 2052.382080,499.678680 2052.019775,502.920563 
	C2049.326904,527.009766 2046.257690,551.074524 2044.347656,575.229248 
	C2041.779907,607.699768 2040.712646,640.292847 2037.918335,672.740112 
	C2035.954468,695.546265 2033.231079,718.393127 2029.012451,740.877686 
	C2019.170410,793.334900 2001.178467,842.854736 1972.812012,888.391296 
	C1949.769287,925.381958 1922.499512,959.028503 1890.034912,987.888062 
	C1862.462158,1012.398804 1832.840576,1034.603394 1804.145386,1057.852905 
	C1771.286621,1084.476318 1738.415283,1111.081543 1711.058838,1143.682739 
	C1691.374146,1167.141235 1675.564941,1192.713501 1667.362793,1222.530518 
	C1659.981567,1249.362915 1657.225098,1276.477661 1659.547119,1304.379761 
	C1662.404419,1338.712646 1675.726440,1367.773071 1699.198120,1392.654297 
	C1703.709717,1397.436768 1707.911621,1398.888062 1714.128906,1396.331055 
	C1732.276978,1388.867676 1751.165771,1382.973145 1768.721191,1374.342163 
	C1835.455444,1341.531738 1894.244751,1298.060669 1943.543335,1241.980225 
	C1969.638794,1212.294800 1991.807373,1180.032227 2010.379395,1145.253784 
	C2033.892334,1101.223145 2050.507812,1054.638062 2061.178223,1005.901855 
	C2072.440918,954.461609 2079.408203,902.502747 2080.273682,849.788635 
	C2080.355225,844.815186 2081.220703,839.852173 2081.257812,834.880798 
	C2081.376953,818.907715 2081.378906,802.932007 2081.228760,786.959229 
	C2081.125732,775.990173 2080.115479,765.001953 2080.537842,754.061890 
	C2081.269043,735.136536 2082.373291,716.203003 2084.106689,697.345093 
	C2085.990234,676.852600 2087.890137,656.292969 2091.336182,636.026672 
	C2099.144775,590.104065 2117.259766,548.102417 2143.062500,507.687683 
M1487.902466,540.849304 
	C1471.737061,546.038940 1455.298340,550.519592 1439.483276,556.617676 
	C1423.673462,562.713867 1408.279175,570.008606 1393.088257,577.554199 
	C1378.723267,584.689575 1365.869751,594.075134 1355.656128,606.757751 
	C1347.801636,616.511047 1346.247314,626.966309 1353.805786,636.832458 
	C1358.612305,643.106628 1364.029175,649.137939 1370.077881,654.195068 
	C1391.329590,671.962524 1416.332642,682.942200 1442.067871,692.336243 
	C1484.669678,707.887207 1528.413086,719.403137 1572.955811,727.671509 
	C1604.948242,733.610352 1637.150146,738.419922 1669.258667,743.732910 
	C1679.205566,745.378784 1688.493530,743.776001 1696.698486,737.719238 
	C1708.978027,728.654602 1721.419922,719.779114 1733.298950,710.210144 
	C1751.507324,695.542542 1763.437744,676.536865 1768.334473,653.693909 
	C1771.597656,638.471375 1773.637451,622.967773 1775.788330,607.529114 
	C1781.941284,563.363098 1802.093994,527.079956 1836.349609,498.558899 
	C1838.143188,497.065491 1839.400146,494.927765 1842.191040,491.523773 
	C1820.412109,492.518005 1800.817993,493.032104 1781.285034,494.412201 
	C1762.096436,495.768036 1742.970337,498.010162 1723.815674,499.850769 
	C1707.951782,501.375183 1692.018311,502.378845 1676.236938,504.510956 
	C1651.240112,507.888062 1626.334717,511.950836 1601.408691,515.839661 
	C1563.594971,521.739136 1526.344238,530.237427 1487.902466,540.849304 
M1628.617676,817.608765 
	C1660.188354,795.650391 1693.879395,777.644714 1729.459229,763.066895 
	C1744.856567,756.758179 1760.383667,750.594666 1775.207031,743.091125 
	C1807.835327,726.574524 1825.435181,700.397095 1823.886230,662.884277 
	C1823.140747,644.830383 1819.480957,627.286072 1814.360596,610.024536 
	C1810.271729,596.240356 1807.177612,582.332947 1807.737061,567.818604 
	C1807.813354,565.840088 1807.245239,563.836853 1806.975586,561.845032 
	C1806.321411,561.775024 1805.667236,561.705078 1805.013062,561.635132 
	C1802.009521,570.380859 1798.104492,578.934509 1796.190674,587.912537 
	C1792.246460,606.415405 1788.863159,625.072510 1786.162842,643.797852 
	C1781.986572,672.758911 1771.687988,698.511841 1749.047729,717.986511 
	C1737.719116,727.731384 1726.336182,737.659302 1713.848633,745.764709 
	C1676.143433,770.238342 1634.869995,787.134583 1591.922729,799.899719 
	C1526.115601,819.459290 1467.436890,850.381042 1422.767944,904.145874 
	C1403.883057,926.876404 1388.832886,951.970459 1378.030151,979.414978 
	C1360.803833,1023.178467 1354.236084,1068.421997 1359.672485,1115.426025 
	C1362.996826,1144.170166 1370.493896,1171.521851 1382.779663,1197.634399 
	C1400.287598,1234.846436 1423.064209,1268.892700 1445.911011,1302.910889 
	C1464.097046,1329.989136 1482.107788,1357.186157 1500.015747,1384.449097 
	C1504.891235,1391.871582 1507.477051,1402.022461 1514.094604,1406.734009 
	C1520.798218,1411.506592 1531.193115,1411.093262 1539.969482,1412.958618 
	C1540.620483,1413.097168 1541.253052,1413.411377 1541.904663,1413.445923 
	C1549.649780,1413.856445 1557.443359,1415.313721 1566.332397,1413.082764 
	C1563.809326,1409.052856 1561.973389,1405.985718 1560.008667,1403.003418 
	C1543.279297,1377.609009 1529.381226,1350.716187 1517.991455,1322.556763 
	C1504.475464,1289.140259 1494.024414,1254.735352 1488.450317,1219.110840 
	C1484.757324,1195.509155 1481.700684,1171.686279 1480.489380,1147.854248 
	C1479.411987,1126.657593 1481.163208,1105.308716 1481.854492,1084.032959 
	C1482.613281,1060.669678 1486.897095,1037.787476 1492.190918,1015.113403 
	C1500.730469,978.537292 1513.991333,943.840454 1534.579834,912.200562 
	C1559.077026,874.553894 1590.585205,843.831665 1628.617676,817.608765 
M1842.584839,1365.616211 
	C1825.006104,1375.787476 1807.820312,1386.732422 1789.737671,1395.911133 
	C1771.831909,1405.000122 1753.021851,1412.307251 1734.420044,1420.478760 
	C1735.223877,1421.478638 1735.687500,1422.471680 1736.467285,1422.964844 
	C1766.090576,1441.692017 1798.607910,1451.506714 1833.410645,1453.898193 
	C1854.921021,1455.376465 1875.807373,1451.195923 1896.530273,1445.972534 
	C1938.582764,1435.372559 1976.480103,1416.648926 2009.008545,1387.774536 
	C2043.573242,1357.092896 2068.109863,1319.263794 2085.234863,1276.692383 
	C2107.833740,1220.512939 2117.354736,1161.574951 2120.097656,1101.369019 
	C2120.355469,1095.711426 2120.426270,1090.045166 2120.569336,1084.382568 
	C2120.930420,1070.085815 2122.424561,1055.705566 2121.388916,1041.510254 
	C2119.539551,1016.162415 2119.297119,991.029419 2123.814453,965.942261 
	C2134.424561,907.018494 2165.092285,861.430969 2214.894043,828.489197 
	C2216.935547,827.138733 2218.786621,825.499939 2220.726318,823.995483 
	C2196.444092,821.500244 2173.217041,823.379272 2151.338135,833.458435 
	C2137.140381,839.999084 2125.631348,849.833313 2117.181396,863.224731 
	C2109.409180,875.542236 2104.112061,888.879028 2102.153320,903.135132 
	C2098.899170,926.818787 2096.967773,950.681091 2093.983887,974.405884 
	C2091.913086,990.873108 2089.969482,1007.453369 2086.303955,1023.605225 
	C2074.439697,1075.881592 2055.286133,1125.457397 2028.864624,1172.159058 
	C2010.598145,1204.446289 1989.423828,1234.722046 1964.510620,1262.202637 
	C1928.764160,1301.632568 1888.787720,1336.207886 1842.584839,1365.616211 
M2364.855713,717.998169 
	C2398.393555,709.430115 2431.555176,699.673340 2463.404297,685.949097 
	C2483.975830,677.084473 2503.672607,666.682129 2519.288086,650.119995 
	C2522.885742,646.304138 2525.827148,641.772766 2528.558838,637.260742 
	C2532.573730,630.629089 2532.081543,623.512146 2527.562988,617.602478 
	C2522.155029,610.529602 2516.274902,603.585449 2509.559326,597.790649 
	C2492.988037,583.491272 2473.151123,574.574280 2453.275146,565.999023 
	C2424.509277,553.588379 2394.559326,544.588013 2364.350342,536.518494 
	C2347.394775,531.989258 2330.210205,528.317200 2313.049561,524.240112 
	C2307.449951,531.464050 2302.257324,538.162964 2296.686523,545.349792 
	C2305.170410,547.226746 2312.781982,548.910583 2321.787842,550.902954 
	C2318.916260,553.285767 2317.331299,554.880554 2315.490479,556.083679 
	C2302.091064,564.840942 2292.322021,577.008179 2283.997803,590.334167 
	C2281.250244,594.733032 2279.326904,600.010193 2278.446045,605.129822 
	C2276.987793,613.605530 2276.741455,622.285339 2275.873535,630.867920 
	C2274.639648,643.066162 2274.057861,655.393250 2271.838379,667.414307 
	C2268.477783,685.615479 2259.528564,700.849365 2244.946045,712.733704 
	C2227.908691,726.618652 2208.554443,735.761475 2187.784424,742.396545 
	C2184.033936,743.594727 2179.729492,744.727478 2177.183838,749.241394 
	C2184.511230,748.651794 2191.111572,748.431702 2197.619873,747.540344 
	C2219.631104,744.525574 2241.728027,741.925232 2263.573242,737.959351 
	C2296.884521,731.911865 2330.012939,724.857056 2364.855713,717.998169 
M2042.976929,353.851440 
	C2056.278076,354.622681 2069.585693,355.300659 2082.876953,356.219025 
	C2087.147949,356.514160 2090.269043,355.361542 2093.548096,352.343140 
	C2107.014160,339.947693 2120.816650,327.915924 2134.558838,315.822845 
	C2146.807861,305.043945 2159.555176,294.794708 2171.346436,283.540405 
	C2193.064697,262.810883 2203.330566,236.938644 2201.485840,207.055786 
	C2200.319336,188.165421 2197.568115,169.329987 2194.679443,150.600739 
	C2191.678467,131.142487 2188.520264,111.743820 2190.043213,91.990242 
	C2191.400879,74.381935 2195.680908,57.802200 2208.704346,44.718903 
	C2209.166016,44.255051 2209.036133,43.202278 2209.316650,41.705708 
	C2191.524170,45.135368 2175.131348,50.274746 2160.705566,60.427277 
	C2148.351318,69.121910 2141.101074,80.760941 2143.886719,96.274719 
	C2146.286865,109.644356 2149.856445,122.818420 2153.251953,135.990707 
	C2156.321289,147.898117 2160.551514,159.544022 2163.000977,171.563858 
	C2165.899902,185.787262 2160.359375,197.206268 2147.833496,204.568176 
	C2142.440186,207.738205 2136.477783,210.261246 2130.459717,211.972595 
	C2121.518311,214.515167 2112.304443,216.106781 2103.194824,218.049164 
	C2068.962646,225.348373 2036.711060,237.374161 2008.234619,258.217712 
	C1979.675293,279.122070 1959.182739,305.900879 1949.370117,340.274567 
	C1948.400269,343.671936 1947.921021,347.209320 1947.132202,351.083008 
	C1979.199585,352.014801 2010.118652,352.913239 2042.976929,353.851440 
M2261.918701,614.967102 
	C2266.135254,589.450562 2262.938965,584.489746 2290.506836,560.748657 
	C2272.255127,561.307312 2259.156982,569.087463 2251.895508,585.852295 
	C2250.574219,588.902771 2249.351807,591.995972 2248.018555,595.040894 
	C2246.419678,598.692993 2244.937744,602.413330 2243.079102,605.931824 
	C2235.828369,619.655762 2212.636230,626.267273 2200.339844,609.045227 
	C2185.373779,588.083740 2185.788574,561.852356 2208.009766,544.009338 
	C2221.677490,533.034485 2238.085938,527.089844 2253.988525,520.293701 
	C2256.883789,519.056396 2259.743408,517.734924 2262.569824,516.474426 
	C2262.025391,515.191833 2261.942627,514.710205 2261.794678,514.689453 
	C2236.501953,511.136169 2211.202637,507.626862 2185.908203,504.084625 
	C2181.103027,503.411682 2177.981445,505.292755 2175.039307,509.251617 
	C2152.768066,539.222473 2135.918945,571.986389 2126.302979,608.002625 
	C2120.923340,628.151855 2117.578613,648.913635 2114.441162,669.570190 
	C2112.003174,685.619934 2110.712891,701.907898 2110.000732,718.137756 
	C2109.300537,734.087036 2110.189697,750.099548 2109.966797,766.078552 
	C2109.814209,777.029175 2108.873779,787.966919 2108.452881,798.916809 
	C2108.323975,802.273315 2107.264404,805.928711 2110.104248,809.642273 
	C2114.324951,800.491455 2117.832764,791.920654 2122.124023,783.761841 
	C2135.457520,758.410889 2155.385742,740.194763 2181.769287,728.793579 
	C2196.396240,722.472778 2211.165771,716.175293 2224.926758,708.231384 
	C2245.287598,696.478027 2255.937012,677.833252 2258.181641,654.425903 
	C2259.385742,641.869690 2260.619629,629.316345 2261.918701,614.967102 
M1742.397339,1565.842041 
	C1756.085571,1563.909790 1769.773926,1561.977661 1785.425415,1559.768311 
	C1764.765137,1553.026733 1746.265259,1547.578369 1728.185547,1540.979126 
	C1676.473877,1522.103882 1633.145630,1490.866699 1596.589111,1449.997192 
	C1593.009888,1445.995850 1589.301392,1444.004639 1583.736694,1443.950195 
	C1573.461792,1443.849609 1563.176392,1443.012207 1552.933228,1442.069824 
	C1544.825195,1441.324219 1536.773804,1439.962402 1527.329468,1438.689819 
	C1528.978271,1443.791138 1530.228271,1447.506470 1531.381714,1451.251587 
	C1538.070312,1472.969849 1542.463867,1495.047241 1541.776367,1517.919312 
	C1541.641235,1522.416016 1539.932129,1528.030029 1541.982056,1531.110596 
	C1544.172852,1534.402954 1549.951904,1535.310425 1554.168945,1537.249390 
	C1555.076050,1537.666626 1555.996704,1538.056030 1556.920288,1538.436035 
	C1605.533203,1558.440918 1656.347290,1567.170044 1708.690552,1567.645996 
	C1719.297119,1567.742432 1729.915771,1566.512695 1742.397339,1565.842041 
M1424.104736,1320.872925 
	C1400.344360,1286.248047 1377.990356,1250.835327 1359.296021,1213.102417 
	C1336.240723,1166.567383 1327.165405,1117.536987 1330.206177,1065.995850 
	C1330.549683,1060.175415 1331.535400,1054.392944 1332.223267,1048.592773 
	C1327.692871,1057.345459 1324.598999,1066.393555 1322.179077,1075.618286 
	C1315.843140,1099.770508 1311.826782,1124.254517 1309.384888,1149.188477 
	C1307.511108,1168.319946 1307.132080,1187.495850 1310.846191,1205.815063 
	C1320.552002,1253.687988 1341.921265,1296.259521 1375.377197,1332.352051 
	C1394.159058,1352.614258 1416.177979,1368.570679 1440.700073,1381.074707 
	C1450.318970,1385.979614 1460.024536,1390.918579 1473.003662,1394.052856 
	C1457.334839,1368.032471 1441.374634,1344.879517 1424.104736,1320.872925 
M2262.320801,274.963623 
	C2262.726318,253.023148 2261.349609,231.277725 2255.744873,209.912842 
	C2250.630859,228.023300 2242.221924,244.166901 2231.583496,259.217560 
	C2220.566162,274.804565 2207.691406,288.746887 2193.096191,301.001007 
	C2178.560547,313.205139 2163.615234,324.919891 2148.954346,336.976959 
	C2144.849121,340.353088 2140.995361,344.061523 2137.245117,347.835022 
	C2133.663086,351.439331 2129.184570,354.368683 2126.941162,359.541138 
	C2163.005127,363.448730 2198.395020,367.286377 2233.788086,371.092926 
	C2234.407471,371.159515 2235.067139,370.852448 2236.493164,370.557220 
	C2253.134521,341.883026 2261.999512,310.627228 2262.320801,274.963623 
M2277.541260,311.258057 
	C2275.680176,326.414917 2273.817139,341.571533 2271.959229,356.728790 
	C2271.170654,363.161346 2270.393555,369.595245 2269.556152,376.481445 
	C2277.510254,378.020752 2284.254639,379.325958 2291.340332,380.697235 
	C2292.165771,378.526398 2292.964844,377.073090 2293.269531,375.522736 
	C2295.772461,362.783020 2303.025391,353.059875 2312.840820,345.115692 
	C2319.299805,339.888000 2326.190186,335.197357 2332.771240,330.115356 
	C2342.770264,322.393707 2352.927734,314.846497 2362.546387,306.670380 
	C2375.866699,295.347839 2381.432617,280.619629 2380.385986,263.153656 
	C2379.080566,241.374084 2369.346680,223.021973 2357.548096,205.461502 
	C2356.420166,203.782822 2354.690674,202.508636 2352.302002,200.100983 
	C2352.302002,202.998108 2352.182617,204.294876 2352.320068,205.563873 
	C2355.129395,231.513840 2344.677246,251.546783 2324.635010,267.166870 
	C2315.453857,274.322235 2306.052246,281.199249 2296.657227,288.074493 
	C2288.743652,293.865692 2281.952148,300.553040 2277.541260,311.258057 
M2208.749756,260.951263 
	C2208.749756,260.951263 2209.209717,261.216095 2209.209717,261.216095 
	C2209.209717,261.216095 2209.139160,260.648315 2208.749756,260.951263 
z"/>
<path fill="#141B1A" opacity="1.000000" stroke="none" 
	d="
M2015.735352,1648.026367 
	C2018.198853,1661.486938 2020.250610,1674.236084 2022.052612,1687.020508 
	C2025.046997,1708.265991 2027.881226,1729.534058 2031.064209,1752.853394 
	C2035.887085,1747.282471 2038.397095,1742.456543 2041.037354,1737.729370 
	C2056.938965,1709.259277 2072.880859,1680.811401 2088.684814,1652.287109 
	C2090.785889,1648.494995 2093.051758,1646.053223 2097.854492,1646.080444 
	C2128.507324,1646.254150 2159.161377,1646.206787 2189.815186,1646.274902 
	C2190.762451,1646.276978 2191.708740,1646.747925 2193.793213,1647.303833 
	C2193.600830,1650.009521 2193.806396,1652.898193 2193.144775,1655.572266 
	C2176.929199,1721.093262 2160.586914,1786.583008 2144.406494,1852.112549 
	C2143.271240,1856.709351 2142.239990,1860.254150 2136.393066,1860.202515 
	C2115.070557,1860.013916 2093.745361,1860.103882 2072.421631,1860.012573 
	C2071.180176,1860.007324 2069.942139,1859.327026 2067.531006,1858.614746 
	C2074.246094,1825.382812 2083.307861,1792.864868 2090.282959,1759.911133 
	C2089.640381,1759.530762 2088.997803,1759.150391 2088.354980,1758.770020 
	C2086.734131,1760.856079 2084.849121,1762.788452 2083.531982,1765.051270 
	C2066.456787,1794.383423 2049.333496,1823.689453 2032.572266,1853.200684 
	C2029.757080,1858.157227 2026.811768,1860.474365 2020.944824,1860.286987 
	C2007.994019,1859.873535 1995.020752,1860.158691 1980.967529,1860.158691 
	C1976.054565,1823.903442 1971.219116,1788.219604 1966.383667,1752.535767 
	C1965.783936,1752.486938 1965.184326,1752.438110 1964.584717,1752.389282 
	C1955.562988,1788.028442 1946.541382,1823.667480 1937.460083,1859.541748 
	C1910.724609,1859.541748 1884.903198,1859.541748 1858.107178,1859.541748 
	C1858.522461,1856.312866 1858.599731,1853.752075 1859.201294,1851.320801 
	C1875.333496,1786.121948 1891.510132,1720.933960 1907.705933,1655.750854 
	C1910.070190,1646.234985 1910.131836,1646.170044 1919.474487,1646.156860 
	C1948.462891,1646.115967 1977.451416,1646.107788 2006.439575,1646.193604 
	C2009.364502,1646.202271 2012.287476,1646.934448 2015.735352,1648.026367 
M2090.580566,1753.798218 
	C2090.763916,1754.095459 2090.947021,1754.392822 2091.130371,1754.690063 
	C2091.106934,1754.271362 2091.083496,1753.852661 2090.580566,1753.798218 
z"/>
<path fill="#141B1A" opacity="1.000000" stroke="none" 
	d="
M1369.312744,1779.338867 
	C1354.598267,1804.733765 1340.235962,1829.486450 1325.903809,1854.256470 
	C1324.227783,1857.153076 1322.899292,1860.171509 1318.698730,1860.144043 
	C1304.423828,1860.050903 1290.147949,1860.108398 1275.187256,1860.108398 
	C1269.535645,1824.232544 1266.096558,1788.766479 1260.401978,1753.659302 
	C1259.708496,1753.657715 1259.015015,1753.656006 1258.321533,1753.654419 
	C1249.444458,1788.734863 1240.567383,1823.815308 1231.555420,1859.429077 
	C1204.984253,1859.429077 1178.888306,1859.429077 1151.227417,1859.429077 
	C1168.911133,1787.863037 1186.334595,1717.350586 1203.801514,1646.661743 
	C1207.964844,1646.446655 1210.915405,1646.165405 1213.866211,1646.161987 
	C1242.523438,1646.128662 1271.180542,1646.120117 1299.837769,1646.153076 
	C1310.648560,1646.165405 1310.751099,1646.598633 1312.139038,1657.077515 
	C1315.100952,1679.442261 1318.436401,1701.757202 1321.499756,1724.108887 
	C1322.708862,1732.931519 1323.600830,1741.797485 1324.828735,1752.276489 
	C1327.000732,1749.976929 1328.480957,1748.911865 1329.296875,1747.470703 
	C1341.428589,1726.041138 1353.478271,1704.565308 1365.534180,1683.092896 
	C1371.398682,1672.648071 1377.307129,1662.226807 1383.044434,1651.712402 
	C1384.951660,1648.217041 1387.199707,1646.079346 1391.549927,1646.098877 
	C1422.205322,1646.236450 1452.861572,1646.193237 1483.517334,1646.271484 
	C1484.769531,1646.274658 1486.020020,1646.911621 1488.533569,1647.597900 
	C1486.771973,1656.118164 1485.334351,1664.531250 1483.276367,1672.789917 
	C1468.320801,1732.809692 1453.206299,1792.789795 1438.270142,1852.814331 
	C1437.192261,1857.145508 1435.908447,1860.212891 1430.676880,1860.175049 
	C1409.020874,1860.018433 1387.363647,1860.047852 1365.707031,1859.944702 
	C1364.792358,1859.940430 1363.880737,1859.296997 1361.687378,1858.466675 
	C1367.960938,1825.354614 1377.940430,1792.895386 1384.130371,1759.679077 
	C1383.329956,1759.349976 1382.529541,1759.020996 1381.729126,1758.691895 
	C1377.710693,1765.361816 1373.692261,1772.031738 1369.312744,1779.338867 
M1384.945557,1754.853516 
	C1385.042480,1754.444214 1385.139404,1754.034912 1385.236328,1753.625610 
	C1385.003418,1753.885132 1384.770508,1754.144653 1384.945557,1754.853516 
z"/>
<path fill="#141B1A" opacity="1.000000" stroke="none" 
	d="
M1451.901611,2127.858643 
	C1431.015137,2127.858398 1411.109863,2127.858398 1390.258057,2127.858398 
	C1390.450073,2124.128906 1390.172607,2121.516113 1390.768066,2119.120117 
	C1406.638306,2055.248535 1422.578491,1991.394165 1438.593262,1927.558716 
	C1439.543213,1923.772095 1441.214966,1920.166748 1442.541260,1916.503174 
	C1469.741577,1916.503174 1496.223755,1916.503174 1523.445068,1916.503174 
	C1518.091309,1943.150024 1510.551880,1968.533447 1505.446777,1994.898438 
	C1508.635742,1995.455322 1510.542480,1996.067017 1512.452637,1996.077637 
	C1527.439697,1996.160522 1542.428955,1996.011230 1557.414307,1996.196045 
	C1562.587158,1996.259766 1565.047485,1994.458252 1566.266113,1989.139893 
	C1571.163574,1967.764893 1576.543457,1946.500122 1581.788574,1925.205444 
	C1582.490479,1922.355713 1583.441284,1919.567139 1584.384277,1916.388428 
	C1611.414673,1916.388428 1637.920532,1916.388428 1665.916748,1916.388428 
	C1648.274658,1987.006592 1630.834595,2056.815674 1613.257690,2127.172852 
	C1586.370483,2127.172852 1559.900757,2127.172852 1532.354004,2127.172852 
	C1532.642212,2124.303467 1532.602173,2121.780029 1533.180786,2119.407471 
	C1537.668945,2100.999268 1542.299683,2082.626221 1546.816040,2064.225098 
	C1547.350464,2062.047607 1547.459351,2059.765869 1547.962769,2056.093506 
	C1528.136108,2055.707520 1509.031860,2055.718262 1489.131104,2056.150635 
	C1483.054565,2079.980957 1477.087158,2103.383789 1470.846191,2127.858887 
	C1464.709351,2127.858887 1458.796021,2127.858887 1451.901611,2127.858643 
z"/>
<path fill="#141B1A" opacity="1.000000" stroke="none" 
	d="
M1833.846436,1834.411743 
	C1833.848022,1842.993164 1833.848022,1850.621948 1833.848022,1858.808350 
	C1831.313965,1859.300049 1829.135010,1860.081055 1826.952759,1860.090820 
	C1805.622437,1860.186157 1784.291260,1860.092163 1762.961182,1860.205811 
	C1758.646729,1860.228760 1755.222778,1859.296387 1752.781860,1855.381958 
	C1739.395142,1833.914429 1725.899902,1812.514648 1712.489746,1791.061768 
	C1711.825928,1789.999878 1711.612671,1788.656372 1710.690796,1786.014160 
	C1725.183105,1786.014160 1738.895142,1786.014160 1752.269043,1786.014160 
	C1754.322144,1777.242920 1751.763672,1722.637695 1748.565796,1705.745483 
	C1744.439575,1712.986938 1740.840942,1718.706055 1737.812866,1724.712891 
	C1716.813599,1766.370117 1695.744629,1807.994629 1675.187256,1849.869873 
	C1671.466919,1857.448120 1667.243286,1860.654175 1658.562866,1860.371338 
	C1638.253540,1859.710083 1617.907959,1860.160156 1597.577148,1860.160278 
	C1594.324341,1860.160278 1591.071533,1860.160278 1586.882568,1860.160278 
	C1587.863770,1857.248047 1588.271729,1855.342407 1589.109863,1853.649658 
	C1622.229126,1786.772217 1655.418579,1719.929321 1688.474731,1653.020752 
	C1690.793823,1648.326660 1693.550171,1646.001099 1699.142456,1646.032104 
	C1738.469604,1646.250244 1777.798706,1646.148071 1817.127075,1646.182617 
	C1818.759888,1646.184082 1820.392456,1646.525757 1822.613770,1646.774902 
	C1823.031250,1649.025024 1823.701660,1651.198486 1823.800293,1653.397583 
	C1824.648682,1672.328613 1825.273926,1691.270142 1826.199951,1710.197021 
	C1827.417480,1735.078003 1828.722900,1759.956055 1830.230591,1784.820801 
	C1831.214600,1801.046875 1832.625244,1817.247192 1833.846436,1834.411743 
z"/>
<path fill="#141B1A" opacity="1.000000" stroke="none" 
	d="
M1858.010498,2116.145508 
	C1879.503296,2073.138672 1900.605469,2030.782837 1921.875732,1988.511475 
	C1932.954468,1966.494263 1944.452637,1944.687866 1955.472534,1922.641968 
	C1957.839844,1917.906250 1960.520752,1915.691284 1966.099731,1915.723389 
	C2005.762695,1915.951782 2045.427490,1915.846680 2085.091797,1915.882935 
	C2086.732178,1915.884399 2088.371826,1916.235352 2091.172607,1916.556396 
	C2091.490967,1922.725098 2091.753174,1928.906128 2092.139648,1935.079346 
	C2093.321533,1953.961182 2094.593506,1972.837646 2095.731689,1991.722046 
	C2096.011719,1996.374756 2095.793457,2001.055786 2096.011963,2005.713989 
	C2097.366699,2034.590576 2098.701172,2063.468506 2100.215332,2092.336670 
	C2100.803955,2103.557861 2101.843018,2114.755615 2102.746582,2126.904297 
	C2098.576660,2127.306396 2095.717773,2127.811768 2092.857178,2127.821289 
	C2072.191895,2127.889648 2051.524414,2127.693115 2030.862549,2127.962402 
	C2024.867676,2128.040527 2021.304810,2126.219971 2018.145020,2120.767090 
	C2006.464722,2100.609131 1994.106567,2080.844238 1982.045654,2060.906250 
	C1980.722290,2058.718750 1979.672729,2056.365234 1977.954834,2053.041260 
	C1992.688110,2051.046143 2006.585449,2053.039551 2021.693848,2051.585449 
	C2021.246094,2025.493408 2018.879883,1999.846680 2016.216309,1973.274536 
	C2014.799316,1975.483643 2013.178833,1977.589233 2011.995483,1979.917236 
	C1988.595581,2025.951172 1965.085083,2071.930908 1942.054688,2118.149414 
	C1938.454956,2125.373535 1934.444458,2128.337891 1926.161255,2128.072266 
	C1905.849976,2127.420898 1885.503906,2127.859375 1865.171753,2127.859375 
	C1861.892212,2127.859375 1858.612793,2127.859375 1853.469238,2127.859375 
	C1855.238525,2123.236084 1856.463989,2120.033691 1858.010498,2116.145508 
z"/>
<path fill="#141B1A" opacity="1.000000" stroke="none" 
	d="
M1789.999634,2127.859131 
	C1742.463867,2127.858887 1695.927856,2127.858887 1648.275269,2127.858887 
	C1651.918579,2112.836670 1655.097046,2099.294678 1658.492798,2085.807129 
	C1671.812622,2032.904541 1685.200195,1980.018677 1698.567627,1927.128052 
	C1699.056763,1925.192505 1699.747192,1923.295898 1700.085205,1921.336670 
	C1700.783081,1917.292847 1703.280518,1915.773193 1707.134277,1915.866455 
	C1708.799438,1915.906860 1710.467041,1915.841187 1712.133545,1915.841064 
	C1766.465820,1915.839355 1820.798218,1915.839722 1875.130493,1915.839600 
	C1878.332275,1915.839600 1881.534058,1915.839478 1886.028931,1915.839478 
	C1880.269165,1935.886963 1874.968140,1954.337891 1869.376953,1973.798340 
	C1835.788452,1973.798340 1802.618408,1973.798340 1768.669800,1973.798340 
	C1766.680786,1983.771118 1764.896362,1992.718628 1762.881592,2002.820923 
	C1774.814697,2004.665283 1785.387329,2003.622314 1795.870850,2003.798218 
	C1806.867432,2003.982788 1817.869751,2003.839600 1828.869507,2003.839600 
	C1839.468872,2003.839600 1850.068237,2003.839355 1862.143188,2003.839355 
	C1859.195679,2020.333984 1853.883301,2034.735596 1849.341675,2050.160400 
	C1845.176025,2050.160400 1841.563110,2050.160400 1837.950195,2050.160400 
	C1812.284058,2050.160645 1786.617798,2050.128662 1760.951660,2050.177002 
	C1750.601196,2050.196533 1750.168823,2050.675049 1748.049561,2061.101562 
	C1746.999268,2066.268555 1745.817139,2071.408447 1744.396240,2077.931152 
	C1777.721069,2077.931152 1810.188110,2077.931152 1842.469849,2077.931152 
	C1843.530151,2086.167236 1837.038574,2112.144287 1830.251465,2127.859375 
	C1817.525879,2127.859375 1804.262695,2127.859375 1789.999634,2127.859131 
z"/>
<path fill="#141B1A" opacity="1.000000" stroke="none" 
	d="
M2240.000000,1915.838867 
	C2253.989258,1915.838745 2267.001221,1916.315308 2279.960205,1915.689331 
	C2290.518311,1915.179565 2301.193604,1914.175781 2311.493652,1911.916992 
	C2328.030273,1908.290527 2335.610596,1898.014404 2335.849609,1881.285400 
	C2335.920898,1876.291626 2335.892822,1871.290527 2336.166992,1866.306763 
	C2336.850830,1853.861694 2341.262451,1848.419434 2353.463623,1845.206665 
	C2357.938721,1844.028320 2362.574707,1843.470459 2367.122314,1842.554321 
	C2369.727051,1842.029663 2372.327881,1841.448975 2374.885498,1840.732788 
	C2399.583984,1833.815430 2402.068115,1828.909546 2409.735352,1812.459229 
	C2414.819580,1814.499878 2415.295166,1819.467651 2416.915771,1823.569946 
	C2423.450195,1840.110596 2419.683594,1854.774292 2406.691162,1866.068604 
	C2398.269531,1873.389404 2388.464111,1879.594482 2378.379150,1884.419556 
	C2361.164551,1892.656006 2352.105225,1906.218018 2348.507812,1924.170410 
	C2347.336670,1930.012939 2346.957764,1936.011230 2346.120850,1941.924683 
	C2345.610352,1945.533447 2344.875488,1949.109497 2344.315430,1952.711792 
	C2341.635498,1969.950928 2329.690186,1977.880859 2314.350830,1979.985352 
	C2305.506104,1981.198853 2296.512207,1981.445679 2287.572510,1981.804077 
	C2280.589355,1982.084106 2273.579102,1982.062134 2266.594727,1981.804321 
	C2261.333984,1981.610474 2258.939209,1983.730591 2257.751465,1988.930542 
	C2252.056885,2013.868896 2246.032715,2038.732300 2240.076172,2063.610596 
	C2235.511230,2082.675537 2230.683594,2101.680420 2226.390625,2120.805664 
	C2225.206299,2126.081299 2222.785645,2127.948486 2217.575439,2127.916016 
	C2192.930420,2127.762451 2168.283691,2127.853271 2143.637695,2127.788574 
	C2142.078369,2127.784424 2140.520264,2127.199463 2137.946533,2126.679932 
	C2149.305420,2078.817871 2160.552490,2031.427124 2172.109619,1982.728638 
	C2153.402588,1980.598877 2135.243652,1982.962402 2116.248047,1981.202759 
	C2116.332764,1969.355713 2121.231445,1959.092896 2123.948730,1948.408081 
	C2126.639893,1937.826294 2129.707764,1927.340210 2132.878662,1915.839111 
	C2168.551270,1915.839111 2203.775635,1915.839111 2240.000000,1915.838867 
z"/>
<path fill="#141B1A" opacity="1.000000" stroke="none" 
	d="
M2212.003906,1860.160522 
	C2200.423584,1860.160645 2189.842285,1860.160645 2177.501709,1860.160645 
	C2195.426514,1788.305786 2212.989746,1717.900024 2230.706543,1646.879395 
	C2259.774902,1646.879395 2288.494629,1646.879395 2318.366943,1646.879395 
	C2317.701172,1650.887451 2317.384033,1654.101807 2316.619873,1657.206299 
	C2300.982910,1720.737183 2285.296143,1784.255737 2269.607178,1847.773682 
	C2269.288818,1849.062622 2268.781250,1850.303711 2268.435547,1851.587036 
	C2266.178223,1859.967041 2266.185547,1860.083984 2257.931885,1860.133179 
	C2242.956299,1860.222412 2227.979492,1860.159668 2212.003906,1860.160522 
z"/>
<path fill="#141B1A" opacity="1.000000" stroke="none" 
	d="
M1535.969482,1860.160889 
	C1515.063599,1860.161011 1495.152954,1860.161011 1473.466919,1860.161011 
	C1490.489746,1788.029053 1508.845581,1717.787964 1526.335205,1646.879028 
	C1555.059814,1646.879028 1583.150879,1646.879028 1612.279907,1646.879028 
	C1611.725220,1651.257690 1611.606812,1654.862305 1610.780762,1658.296631 
	C1602.930420,1690.933350 1594.926270,1723.532837 1587.033936,1756.159424 
	C1579.377930,1787.809814 1571.832642,1819.486816 1564.170044,1851.135498 
	C1562.012329,1860.047485 1561.901611,1860.049316 1552.952393,1860.148682 
	C1547.623779,1860.208008 1542.294067,1860.160278 1535.969482,1860.160889 
z"/>
<path fill="#FDFDFD" opacity="1.000000" stroke="none" 
	d="
M2336.922607,507.014709 
	C2293.156006,499.370575 2250.332520,490.942291 2207.172852,484.922821 
	C2170.257080,479.774231 2132.993896,476.927429 2095.816650,473.890808 
	C2043.656372,469.630432 1991.369019,468.081390 1939.027832,467.916656 
	C1882.352295,467.738251 1825.764160,469.497833 1769.218384,473.380035 
	C1722.332275,476.599121 1675.602783,481.227234 1629.132202,488.156952 
	C1559.232178,498.580414 1489.933228,511.880768 1423.937988,538.121460 
	C1405.466797,545.465820 1387.827148,555.090088 1370.330200,564.629761 
	C1358.617676,571.015686 1348.444946,579.825378 1339.945557,590.306274 
	C1321.623901,612.899719 1321.867432,636.307617 1340.969238,658.138367 
	C1355.246216,674.455017 1373.233154,685.947571 1392.340332,695.619629 
	C1428.163086,713.753052 1466.280884,725.666443 1504.977539,735.767944 
	C1548.495239,747.127991 1592.606323,755.632202 1637.090942,762.226379 
	C1639.645996,762.605103 1642.134644,763.430908 1646.544312,764.511963 
	C1635.815063,768.674988 1626.977539,772.378540 1617.954102,775.553406 
	C1591.279175,784.938965 1564.565796,794.219116 1537.766235,803.239563 
	C1534.508423,804.336121 1530.461792,804.353271 1527.067261,803.592590 
	C1460.672852,788.715942 1395.554810,769.915710 1334.070557,740.086609 
	C1307.615356,727.251831 1282.283447,712.633972 1259.720093,693.592041 
	C1247.172363,683.002625 1235.912354,671.222168 1227.146973,657.255371 
	C1207.102051,625.315674 1207.022461,593.294678 1227.139160,561.362366 
	C1237.762329,544.499512 1251.929688,530.914917 1267.575684,518.823608 
	C1299.213501,494.373627 1334.716797,476.907288 1371.565918,462.014252 
	C1429.152954,438.739777 1488.879272,422.677185 1549.589600,410.108887 
	C1614.877563,396.593018 1680.804443,387.501434 1747.204224,381.496399 
	C1802.663818,376.480774 1858.218140,373.974121 1913.873291,372.970062 
	C1974.561890,371.875214 2035.163330,374.035522 2095.656494,378.449371 
	C2189.443848,385.292542 2282.451416,397.800873 2373.953369,420.038849 
	C2436.831299,435.320251 2498.404297,454.460083 2556.269775,484.039215 
	C2583.066406,497.737000 2608.435303,513.600159 2630.263428,534.602051 
	C2641.378906,545.296692 2651.080322,557.088074 2658.128662,570.901794 
	C2670.966553,596.061890 2671.318359,621.332642 2658.774902,646.724304 
	C2651.597900,661.253357 2641.635254,673.683777 2629.946533,684.758301 
	C2602.032227,711.205933 2569.314209,730.372314 2534.594482,746.136169 
	C2477.397461,772.105652 2417.446777,789.862427 2356.361328,803.911987 
	C2335.611816,808.684387 2314.641846,812.493652 2293.816650,816.947205 
	C2290.028564,817.757324 2286.968506,817.339172 2283.376953,815.713257 
	C2252.498535,801.735107 2220.489258,792.107422 2186.261719,791.267517 
	C2169.834717,790.864380 2153.678467,792.371643 2137.864746,796.984741 
	C2135.695068,797.617676 2133.505615,798.184143 2129.446777,799.295959 
	C2133.296143,791.007080 2137.404297,784.838318 2142.020264,779.119690 
	C2143.403809,777.405640 2146.601562,776.596375 2149.054199,776.387573 
	C2196.208008,772.373047 2243.102783,766.341614 2289.663086,757.917786 
	C2351.337402,746.759521 2412.190674,732.491394 2470.145508,707.883972 
	C2487.655273,700.449524 2504.866699,692.217896 2519.711426,680.208191 
	C2528.437500,673.148560 2536.970947,665.313782 2543.654785,656.379272 
	C2557.493652,637.880188 2556.793945,617.674316 2543.195801,598.985046 
	C2534.435547,586.945374 2522.950439,577.861450 2510.582520,569.828796 
	C2491.783936,557.619568 2471.527344,548.294189 2450.683350,540.267456 
	C2413.959473,526.125671 2376.127686,515.694275 2336.922607,507.014709 
z"/>
<path fill="#820031" opacity="1.000000" stroke="none" 
	d="
M2010.858887,696.814270 
	C2005.679688,750.631592 1992.256104,801.115845 1967.016724,848.165894 
	C1952.948486,874.390930 1935.828735,898.442383 1916.403687,921.012817 
	C1894.571167,946.380249 1869.634766,968.328186 1843.985962,989.608765 
	C1807.873169,1019.571533 1771.591553,1049.340698 1735.910522,1079.811157 
	C1706.957642,1104.535767 1680.257202,1131.501221 1660.530029,1164.515747 
	C1644.222656,1191.806641 1634.531738,1221.307739 1631.939575,1253.031006 
	C1631.073975,1263.625488 1630.263062,1274.261108 1630.228760,1284.880371 
	C1630.092529,1327.071777 1640.649780,1365.862061 1667.557007,1399.287476 
	C1669.159058,1401.277710 1670.332397,1403.613159 1672.504150,1407.053345 
	C1665.120117,1408.492676 1658.791260,1409.975342 1652.383423,1410.922363 
	C1639.898804,1412.767090 1627.344116,1414.141968 1614.868774,1416.042236 
	C1606.904419,1417.255249 1602.013672,1414.074097 1597.530151,1407.522705 
	C1577.118042,1377.696045 1560.327393,1345.957764 1546.495728,1312.645630 
	C1529.429810,1271.543579 1518.486450,1228.709473 1512.397461,1184.711426 
	C1508.517212,1156.674194 1506.809326,1128.388916 1508.221069,1100.063843 
	C1510.482788,1054.686157 1516.683716,1010.022949 1533.775146,967.464844 
	C1543.547485,943.131287 1556.864746,920.993469 1574.083618,901.209229 
	C1595.991333,876.037537 1619.276978,852.360229 1646.135864,832.309937 
	C1673.551270,811.844177 1703.675903,796.303345 1734.597534,782.096252 
	C1755.760864,772.372620 1777.493286,763.713074 1797.974731,752.721252 
	C1828.834595,736.159668 1843.076416,708.879761 1844.143311,674.167969 
	C1844.909058,649.261902 1840.382690,625.174988 1834.026978,601.301453 
	C1830.077026,586.464355 1827.723389,571.510559 1827.550171,556.020996 
	C1827.289795,532.739380 1836.084961,514.849304 1855.629883,502.196198 
	C1865.411743,495.863464 1874.802734,488.597076 1887.510620,489.926697 
	C1888.475464,490.027649 1889.417969,490.343109 1891.562744,490.828766 
	C1891.403564,493.866730 1891.406372,497.021851 1891.047241,500.135162 
	C1889.112183,516.909607 1894.276855,531.718506 1904.102539,544.915405 
	C1912.743652,556.521301 1925.221313,559.693237 1938.886108,557.848389 
	C1967.797607,553.945007 1980.705811,536.856873 1977.324097,507.875824 
	C1976.673584,502.299713 1975.529907,496.781128 1974.505859,490.583374 
	C1990.181274,490.583374 2005.317871,490.583374 2021.073853,490.583374 
	C2021.384888,493.376556 2022.098633,495.632812 2021.803101,497.748077 
	C2016.492798,535.757996 2016.394653,574.012512 2015.631348,612.280151 
	C2015.074829,640.183289 2012.668213,668.049561 2010.858887,696.814270 
z"/>
<path fill="#810031" opacity="1.000000" stroke="none" 
	d="
M2142.641113,508.314575 
	C2117.259766,548.102417 2099.144775,590.104065 2091.336182,636.026672 
	C2087.890137,656.292969 2085.990234,676.852600 2084.106689,697.345093 
	C2082.373291,716.203003 2081.269043,735.136536 2080.537842,754.061890 
	C2080.115479,765.001953 2081.125732,775.990173 2081.228760,786.959229 
	C2081.378906,802.932007 2081.376953,818.907715 2081.257812,834.880798 
	C2081.220703,839.852173 2080.355225,844.815186 2080.273682,849.788635 
	C2079.408203,902.502747 2072.440918,954.461609 2061.178223,1005.901855 
	C2050.507812,1054.638062 2033.892334,1101.223145 2010.379395,1145.253784 
	C1991.807373,1180.032227 1969.638794,1212.294800 1943.543335,1241.980225 
	C1894.244751,1298.060669 1835.455444,1341.531738 1768.721191,1374.342163 
	C1751.165771,1382.973145 1732.276978,1388.867676 1714.128906,1396.331055 
	C1707.911621,1398.888062 1703.709717,1397.436768 1699.198120,1392.654297 
	C1675.726440,1367.773071 1662.404419,1338.712646 1659.547119,1304.379761 
	C1657.225098,1276.477661 1659.981567,1249.362915 1667.362793,1222.530518 
	C1675.564941,1192.713501 1691.374146,1167.141235 1711.058838,1143.682739 
	C1738.415283,1111.081543 1771.286621,1084.476318 1804.145386,1057.852905 
	C1832.840576,1034.603394 1862.462158,1012.398804 1890.034912,987.888062 
	C1922.499512,959.028503 1949.769287,925.381958 1972.812012,888.391296 
	C2001.178467,842.854736 2019.170410,793.334900 2029.012451,740.877686 
	C2033.231079,718.393127 2035.954468,695.546265 2037.918335,672.740112 
	C2040.712646,640.292847 2041.779907,607.699768 2044.347656,575.229248 
	C2046.257690,551.074524 2049.326904,527.009766 2052.019775,502.920563 
	C2052.382080,499.678680 2053.564941,496.528595 2054.661377,492.169281 
	C2084.938965,494.388580 2114.899658,496.584686 2146.275635,498.884491 
	C2144.984619,502.421417 2144.023438,505.054565 2142.641113,508.314575 
z"/>
<path fill="#810031" opacity="1.000000" stroke="none" 
	d="
M1628.002808,817.979126 
	C1590.585205,843.831665 1559.077026,874.553894 1534.579834,912.200562 
	C1513.991333,943.840454 1500.730469,978.537292 1492.190918,1015.113403 
	C1486.897095,1037.787476 1482.613281,1060.669678 1481.854492,1084.032959 
	C1481.163208,1105.308716 1479.411987,1126.657593 1480.489380,1147.854248 
	C1481.700684,1171.686279 1484.757324,1195.509155 1488.450317,1219.110840 
	C1494.024414,1254.735352 1504.475464,1289.140259 1517.991455,1322.556763 
	C1529.381226,1350.716187 1543.279297,1377.609009 1560.008667,1403.003418 
	C1561.973389,1405.985718 1563.809326,1409.052856 1566.332397,1413.082764 
	C1557.443359,1415.313721 1549.649780,1413.856445 1541.904663,1413.445923 
	C1541.253052,1413.411377 1540.620483,1413.097168 1539.969482,1412.958618 
	C1531.193115,1411.093262 1520.798218,1411.506592 1514.094604,1406.734009 
	C1507.477051,1402.022461 1504.891235,1391.871582 1500.015747,1384.449097 
	C1482.107788,1357.186157 1464.097046,1329.989136 1445.911011,1302.910889 
	C1423.064209,1268.892700 1400.287598,1234.846436 1382.779663,1197.634399 
	C1370.493896,1171.521851 1362.996826,1144.170166 1359.672485,1115.426025 
	C1354.236084,1068.421997 1360.803833,1023.178467 1378.030151,979.414978 
	C1388.832886,951.970459 1403.883057,926.876404 1422.767944,904.145874 
	C1467.436890,850.381042 1526.115601,819.459290 1591.922729,799.899719 
	C1634.869995,787.134583 1676.143433,770.238342 1713.848633,745.764709 
	C1726.336182,737.659302 1737.719116,727.731384 1749.047729,717.986511 
	C1771.687988,698.511841 1781.986572,672.758911 1786.162842,643.797852 
	C1788.863159,625.072510 1792.246460,606.415405 1796.190674,587.912537 
	C1798.104492,578.934509 1802.009521,570.380859 1805.013062,561.635132 
	C1805.667236,561.705078 1806.321411,561.775024 1806.975586,561.845032 
	C1807.245239,563.836853 1807.813354,565.840088 1807.737061,567.818604 
	C1807.177612,582.332947 1810.271729,596.240356 1814.360596,610.024536 
	C1819.480957,627.286072 1823.140747,644.830383 1823.886230,662.884277 
	C1825.435181,700.397095 1807.835327,726.574524 1775.207031,743.091125 
	C1760.383667,750.594666 1744.856567,756.758179 1729.459229,763.066895 
	C1693.879395,777.644714 1660.188354,795.650391 1628.002808,817.979126 
z"/>
<path fill="#810031" opacity="1.000000" stroke="none" 
	d="
M1843.189941,1365.218506 
	C1888.787720,1336.207886 1928.764160,1301.632568 1964.510620,1262.202637 
	C1989.423828,1234.722046 2010.598145,1204.446289 2028.864624,1172.159058 
	C2055.286133,1125.457397 2074.439697,1075.881592 2086.303955,1023.605225 
	C2089.969482,1007.453369 2091.913086,990.873108 2093.983887,974.405884 
	C2096.967773,950.681091 2098.899170,926.818787 2102.153320,903.135132 
	C2104.112061,888.879028 2109.409180,875.542236 2117.181396,863.224731 
	C2125.631348,849.833313 2137.140381,839.999084 2151.338135,833.458435 
	C2173.217041,823.379272 2196.444092,821.500244 2220.726318,823.995483 
	C2218.786621,825.499939 2216.935547,827.138733 2214.894043,828.489197 
	C2165.092285,861.430969 2134.424561,907.018494 2123.814453,965.942261 
	C2119.297119,991.029419 2119.539551,1016.162415 2121.388916,1041.510254 
	C2122.424561,1055.705566 2120.930420,1070.085815 2120.569336,1084.382568 
	C2120.426270,1090.045166 2120.355469,1095.711426 2120.097656,1101.369019 
	C2117.354736,1161.574951 2107.833740,1220.512939 2085.234863,1276.692383 
	C2068.109863,1319.263794 2043.573242,1357.092896 2009.008545,1387.774536 
	C1976.480103,1416.648926 1938.582764,1435.372559 1896.530273,1445.972534 
	C1875.807373,1451.195923 1854.921021,1455.376465 1833.410645,1453.898193 
	C1798.607910,1451.506714 1766.090576,1441.692017 1736.467285,1422.964844 
	C1735.687500,1422.471680 1735.223877,1421.478638 1734.420044,1420.478760 
	C1753.021851,1412.307251 1771.831909,1405.000122 1789.737671,1395.911133 
	C1807.820312,1386.732422 1825.006104,1375.787476 1843.189941,1365.218506 
z"/>
<path fill="#E3A02C" opacity="1.000000" stroke="none" 
	d="
M2042.007324,353.831543 
	C2010.118652,352.913239 1979.199585,352.014801 1947.132202,351.083008 
	C1947.921021,347.209320 1948.400269,343.671936 1949.370117,340.274567 
	C1959.182739,305.900879 1979.675293,279.122070 2008.234619,258.217712 
	C2036.711060,237.374161 2068.962646,225.348373 2103.194824,218.049164 
	C2112.304443,216.106781 2121.518311,214.515167 2130.459717,211.972595 
	C2136.477783,210.261246 2142.440186,207.738205 2147.833496,204.568176 
	C2160.359375,197.206268 2165.899902,185.787262 2163.000977,171.563858 
	C2160.551514,159.544022 2156.321289,147.898117 2153.251953,135.990707 
	C2149.856445,122.818420 2146.286865,109.644356 2143.886719,96.274719 
	C2141.101074,80.760941 2148.351318,69.121910 2160.705566,60.427277 
	C2175.131348,50.274746 2191.524170,45.135368 2209.316650,41.705708 
	C2209.036133,43.202278 2209.166016,44.255051 2208.704346,44.718903 
	C2195.680908,57.802200 2191.400879,74.381935 2190.043213,91.990242 
	C2188.520264,111.743820 2191.678467,131.142487 2194.679443,150.600739 
	C2197.568115,169.329987 2200.319336,188.165421 2201.485840,207.055786 
	C2203.330566,236.938644 2193.064697,262.810883 2171.346436,283.540405 
	C2159.555176,294.794708 2146.807861,305.043945 2134.558838,315.822845 
	C2120.816650,327.915924 2107.014160,339.947693 2093.548096,352.343140 
	C2090.269043,355.361542 2087.147949,356.514160 2082.876953,356.219025 
	C2069.585693,355.300659 2056.278076,354.622681 2042.007324,353.831543 
z"/>
<path fill="#810031" opacity="1.000000" stroke="none" 
	d="
M2261.879395,615.864380 
	C2260.619629,629.316345 2259.385742,641.869690 2258.181641,654.425903 
	C2255.937012,677.833252 2245.287598,696.478027 2224.926758,708.231384 
	C2211.165771,716.175293 2196.396240,722.472778 2181.769287,728.793579 
	C2155.385742,740.194763 2135.457520,758.410889 2122.124023,783.761841 
	C2117.832764,791.920654 2114.324951,800.491455 2110.104248,809.642273 
	C2107.264404,805.928711 2108.323975,802.273315 2108.452881,798.916809 
	C2108.873779,787.966919 2109.814209,777.029175 2109.966797,766.078552 
	C2110.189697,750.099548 2109.300537,734.087036 2110.000732,718.137756 
	C2110.712891,701.907898 2112.003174,685.619934 2114.441162,669.570190 
	C2117.578613,648.913635 2120.923340,628.151855 2126.302979,608.002625 
	C2135.918945,571.986389 2152.768066,539.222473 2175.039307,509.251617 
	C2177.981445,505.292755 2181.103027,503.411682 2185.908203,504.084625 
	C2211.202637,507.626862 2236.501953,511.136169 2261.794678,514.689453 
	C2261.942627,514.710205 2262.025391,515.191833 2262.569824,516.474426 
	C2259.743408,517.734924 2256.883789,519.056396 2253.988525,520.293701 
	C2238.085938,527.089844 2221.677490,533.034485 2208.009766,544.009338 
	C2185.788574,561.852356 2185.373779,588.083740 2200.339844,609.045227 
	C2212.636230,626.267273 2235.828369,619.655762 2243.079102,605.931824 
	C2244.937744,602.413330 2246.419678,598.692993 2248.018555,595.040894 
	C2249.351807,591.995972 2250.574219,588.902771 2251.895508,585.852295 
	C2259.156982,569.087463 2272.255127,561.307312 2290.506836,560.748657 
	C2262.938965,584.489746 2266.135254,589.450562 2261.879395,615.864380 
z"/>
<path fill="#800031" opacity="1.000000" stroke="none" 
	d="
M2004.185425,1430.161499 
	C2002.836914,1432.379272 2001.822510,1434.908936 2000.088623,1436.767090 
	C1981.186157,1457.024170 1960.861206,1475.675049 1938.326294,1491.904053 
	C1912.782959,1510.299927 1885.262573,1524.965454 1856.204468,1536.932983 
	C1850.046509,1539.468994 1844.166016,1538.917725 1837.749268,1538.457642 
	C1813.416870,1536.713989 1789.591187,1532.395508 1766.125977,1525.997803 
	C1716.645386,1512.506958 1672.854248,1488.955322 1636.719238,1452.064697 
	C1634.437012,1449.734741 1632.309937,1447.252930 1628.819336,1443.426025 
	C1637.090332,1442.205078 1643.763428,1441.313843 1650.403198,1440.219971 
	C1663.839478,1438.006470 1677.364624,1436.160889 1690.634399,1433.186890 
	C1696.548706,1431.861572 1700.715576,1432.920898 1705.312256,1436.406738 
	C1733.901367,1458.086304 1765.768677,1472.699707 1801.090454,1479.235352 
	C1824.152954,1483.502686 1847.463257,1483.920166 1870.639160,1480.266357 
	C1886.695435,1477.734985 1902.767456,1474.836182 1918.495605,1470.791504 
	C1948.499634,1463.075928 1975.679077,1449.120972 2000.713379,1430.937744 
	C2001.241089,1430.554443 2001.906128,1430.360229 2003.266113,1430.045898 
	C2004.025269,1430.014160 2004.185425,1430.161499 2004.185425,1430.161499 
z"/>
<path fill="#810031" opacity="1.000000" stroke="none" 
	d="
M1741.463135,1565.868164 
	C1729.915771,1566.512695 1719.297119,1567.742432 1708.690552,1567.645996 
	C1656.347290,1567.170044 1605.533203,1558.440918 1556.920288,1538.436035 
	C1555.996704,1538.056030 1555.076050,1537.666626 1554.168945,1537.249390 
	C1549.951904,1535.310425 1544.172852,1534.402954 1541.982056,1531.110596 
	C1539.932129,1528.030029 1541.641235,1522.416016 1541.776367,1517.919312 
	C1542.463867,1495.047241 1538.070312,1472.969849 1531.381714,1451.251587 
	C1530.228271,1447.506470 1528.978271,1443.791138 1527.329468,1438.689819 
	C1536.773804,1439.962402 1544.825195,1441.324219 1552.933228,1442.069824 
	C1563.176392,1443.012207 1573.461792,1443.849609 1583.736694,1443.950195 
	C1589.301392,1444.004639 1593.009888,1445.995850 1596.589111,1449.997192 
	C1633.145630,1490.866699 1676.473877,1522.103882 1728.185547,1540.979126 
	C1746.265259,1547.578369 1764.765137,1553.026733 1785.425415,1559.768311 
	C1769.773926,1561.977661 1756.085571,1563.909790 1741.463135,1565.868164 
z"/>
<path fill="#800031" opacity="1.000000" stroke="none" 
	d="
M1424.549561,1321.436035 
	C1441.374634,1344.879517 1457.334839,1368.032471 1473.003662,1394.052856 
	C1460.024536,1390.918579 1450.318970,1385.979614 1440.700073,1381.074707 
	C1416.177979,1368.570679 1394.159058,1352.614258 1375.377197,1332.352051 
	C1341.921265,1296.259521 1320.552002,1253.687988 1310.846191,1205.815063 
	C1307.132080,1187.495850 1307.511108,1168.319946 1309.384888,1149.188477 
	C1311.826782,1124.254517 1315.843140,1099.770508 1322.179077,1075.618286 
	C1324.598999,1066.393555 1327.692871,1057.345459 1332.223267,1048.592773 
	C1331.535400,1054.392944 1330.549683,1060.175415 1330.206177,1065.995850 
	C1327.165405,1117.536987 1336.240723,1166.567383 1359.296021,1213.102417 
	C1377.990356,1250.835327 1400.344360,1286.248047 1424.549561,1321.436035 
z"/>
<path fill="#E29F2C" opacity="1.000000" stroke="none" 
	d="
M2262.317871,275.954376 
	C2261.999512,310.627228 2253.134521,341.883026 2236.493164,370.557220 
	C2235.067139,370.852448 2234.407471,371.159515 2233.788086,371.092926 
	C2198.395020,367.286377 2163.005127,363.448730 2126.941162,359.541138 
	C2129.184570,354.368683 2133.663086,351.439331 2137.245117,347.835022 
	C2140.995361,344.061523 2144.849121,340.353088 2148.954346,336.976959 
	C2163.615234,324.919891 2178.560547,313.205139 2193.096191,301.001007 
	C2207.691406,288.746887 2220.566162,274.804565 2231.583496,259.217560 
	C2242.221924,244.166901 2250.630859,228.023300 2255.744873,209.912842 
	C2261.349609,231.277725 2262.726318,253.023148 2262.317871,275.954376 
z"/>
<path fill="#E29F2C" opacity="1.000000" stroke="none" 
	d="
M2277.795898,310.506561 
	C2281.952148,300.553040 2288.743652,293.865692 2296.657227,288.074493 
	C2306.052246,281.199249 2315.453857,274.322235 2324.635010,267.166870 
	C2344.677246,251.546783 2355.129395,231.513840 2352.320068,205.563873 
	C2352.182617,204.294876 2352.302002,202.998108 2352.302002,200.100983 
	C2354.690674,202.508636 2356.420166,203.782822 2357.548096,205.461502 
	C2369.346680,223.021973 2379.080566,241.374084 2380.385986,263.153656 
	C2381.432617,280.619629 2375.866699,295.347839 2362.546387,306.670380 
	C2352.927734,314.846497 2342.770264,322.393707 2332.771240,330.115356 
	C2326.190186,335.197357 2319.299805,339.888000 2312.840820,345.115692 
	C2303.025391,353.059875 2295.772461,362.783020 2293.269531,375.522736 
	C2292.964844,377.073090 2292.165771,378.526398 2291.340332,380.697235 
	C2284.254639,379.325958 2277.510254,378.020752 2269.556152,376.481445 
	C2270.393555,369.595245 2271.170654,363.161346 2271.959229,356.728790 
	C2273.817139,341.571533 2275.680176,326.414917 2277.795898,310.506561 
z"/>
<path fill="#800031" opacity="1.000000" stroke="none" 
	d="
M1353.965210,1352.045654 
	C1357.154175,1354.928223 1360.681885,1357.516968 1363.477173,1360.740845 
	C1381.835938,1381.913452 1405.404175,1395.688110 1430.491211,1406.791748 
	C1448.708008,1414.854858 1467.701172,1421.187622 1486.459839,1427.983276 
	C1490.230469,1429.349365 1492.865112,1431.215454 1494.398438,1434.841919 
	C1502.592529,1454.222534 1509.307373,1474.039795 1511.979370,1495.022461 
	C1512.854004,1501.891357 1513.417114,1508.800049 1514.170532,1516.157959 
	C1508.625244,1516.741699 1505.111328,1513.863892 1501.790161,1511.615234 
	C1485.532471,1500.607300 1468.818970,1490.115356 1453.535400,1477.858643 
	C1421.359741,1452.055176 1393.806030,1421.798828 1371.981689,1386.663086 
	C1365.346558,1375.980957 1359.930420,1364.541748 1353.980225,1352.723389 
	C1354.004395,1351.997437 1353.965210,1352.045654 1353.965210,1352.045654 
z"/>
<path fill="#800031" opacity="1.000000" stroke="none" 
	d="
M2003.950684,1429.934937 
	C2004.061157,1429.176392 2004.462769,1428.668091 2005.538086,1428.163818 
	C2005.995361,1427.997192 2005.947632,1427.956909 2005.947632,1427.956909 
	C2005.665283,1428.549805 2005.383057,1429.142578 2004.643066,1429.948486 
	C2004.185425,1430.161499 2004.025269,1430.014160 2003.950684,1429.934937 
z"/>
<path fill="#800031" opacity="1.000000" stroke="none" 
	d="
M2006.014771,1428.021240 
	C2006.317017,1427.812378 2006.599854,1427.579468 2006.882690,1427.346680 
	C2006.771118,1427.517944 2006.659424,1427.689209 2006.247681,1427.908691 
	C2005.947632,1427.956909 2005.995361,1427.997192 2006.014771,1428.021240 
z"/>
<path fill="#800031" opacity="1.000000" stroke="none" 
	d="
M1354.028320,1351.977051 
	C1353.784668,1351.694214 1353.517090,1351.431641 1353.249634,1351.169067 
	C1353.432495,1351.263794 1353.615479,1351.358521 1353.881836,1351.749512 
	C1353.965210,1352.045654 1354.004395,1351.997437 1354.028320,1351.977051 
z"/>
<path fill="#47704C" opacity="1.000000" stroke="none" 
	d="
M2208.944336,260.799805 
	C2209.139160,260.648315 2209.209717,261.216095 2209.209717,261.216095 
	C2209.209717,261.216095 2208.749756,260.951263 2208.944336,260.799805 
z"/>
<path fill="#47704C" opacity="1.000000" stroke="none" 
	d="
M2090.820312,1753.616089 
	C2091.083496,1753.852661 2091.106934,1754.271362 2091.130371,1754.690063 
	C2090.947021,1754.392822 2090.763916,1754.095459 2090.820312,1753.616089 
z"/>
<path fill="#47704C" opacity="1.000000" stroke="none" 
	d="
M1384.741577,1754.628906 
	C1384.770508,1754.144653 1385.003418,1753.885132 1385.236328,1753.625610 
	C1385.139404,1754.034912 1385.042480,1754.444214 1384.741577,1754.628906 
z"/>
</svg>